solid weather
facet normal 5.962908637477626e-11 -2.34759867183348e-14 1.0
  outer loop
    vertex 36.205902318732434 -8.306719003488702 110.35459284395048
    vertex 35.36685453438707 63.693280996429706 110.35459284400221
    vertex 35.366854534438815 -8.306719003489613 110.3545928439764
  endloop
endfacet
facet normal 5.962908637477626e-11 -2.34759867183348e-14 1.0
  outer loop
    vertex 35.36685453438707 63.693280996429706 110.35459284400221
    vertex 36.205902318732434 -8.306719003488702 110.35459284395048
    vertex 36.20590231871994 63.693280996430225 110.35459284392806
  endloop
endfacet
facet normal 1.0 4.7947778336502865e-14 -8.956237567761946e-11
  outer loop
    vertex 36.205902318732434 -8.306719003488702 110.35459284395048
    vertex 36.20590231829082 63.693280996427866 105.46228799848772
    vertex 36.20590231871994 63.693280996430225 110.35459284392806
  endloop
endfacet
facet normal 1.0 4.7947778336502865e-14 -8.956237567761946e-11
  outer loop
    vertex 36.20590231829082 63.693280996427866 105.46228799848772
    vertex 36.205902318732434 -8.306719003488702 110.35459284395048
    vertex 36.20590231828523 -8.306719003491809 105.4622879985225
  endloop
endfacet
facet normal -0.7071067812347938 -2.919535290282329e-13 -0.7071067811383014
  outer loop
    vertex 32.44757206908506 63.69328099642968 105.85459284425897
    vertex 35.705902318060275 -8.306719003492528 102.59626259486885
    vertex 32.447572069075235 -8.30671900349142 105.85459284429334
  endloop
endfacet
facet normal -0.7071067812347938 -2.919535290282329e-13 -0.7071067811383014
  outer loop
    vertex 35.705902318060275 -8.306719003492528 102.59626259486885
    vertex 32.44757206908506 63.69328099642968 105.85459284425897
    vertex 35.70590231804779 63.693280996426395 102.59626259484642
  endloop
endfacet
facet normal -0.2588190451736074 -3.8861180951256526e-13 -0.9659258262700207
  outer loop
    vertex 35.705902318060275 -8.306719003492528 102.59626259486885
    vertex 36.20590231802246 63.69328099642641 102.462287998595
    vertex 36.20590231801263 -8.306719003493715 102.46228799862979
  endloop
endfacet
facet normal -0.2588190451736074 -3.8861180951256526e-13 -0.9659258262700207
  outer loop
    vertex 36.20590231802246 63.69328099642641 102.462287998595
    vertex 35.705902318060275 -8.306719003492528 102.59626259486885
    vertex 35.70590231804779 63.693280996426395 102.59626259484642
  endloop
endfacet
facet normal -0.9659258263151056 -2.6681879925574574e-13 -0.258819045005349
  outer loop
    vertex 32.44757206908506 63.69328099642968 105.85459284425897
    vertex 32.09228165046624 -8.306719003491056 107.18055473859458
    vertex 32.092281650420276 63.69328099642853 107.18055473861538
  endloop
endfacet
facet normal -0.9659258263151056 -2.6681879925574574e-13 -0.258819045005349
  outer loop
    vertex 32.09228165046624 -8.306719003491056 107.18055473859458
    vertex 32.44757206908506 63.69328099642968 105.85459284425897
    vertex 32.447572069075235 -8.30671900349142 105.85459284429334
  endloop
endfacet
facet normal -1.0 -6.241023528761964e-13 8.837490271661075e-11
  outer loop
    vertex 35.741800703276624 -4.306719003490807 107.35459284398985
    vertex 35.69068944274704 -8.306719003490693 107.74282141164967
    vertex 35.690689442744535 -4.306719003490692 107.74282141164814
  endloop
endfacet
facet normal -0.9659258263119401 -7.008535151311935e-13 -0.2588190450171623
  outer loop
    vertex 35.69068944274704 -8.306719003490693 107.74282141164967
    vertex 35.741800703276624 -4.306719003490807 107.35459284398985
    vertex 35.741800703279125 -8.306719003490809 107.35459284399137
  endloop
endfacet
facet normal 6.241023529096648e-13 -1.0 3.7870835273038004e-13
  outer loop
    vertex 32.79291196380871 -4.306719003492795 106.96636427659668
    vertex 32.79291196387733 -4.306719003492501 107.74282141190425
    vertex 32.74180070327663 -4.306719003492679 107.35459284425498
  endloop
endfacet
facet normal 6.241023529096648e-13 -1.0 3.7870835273038004e-13
  outer loop
    vertex 32.79291196387733 -4.306719003492501 107.74282141190425
    vertex 32.79291196380871 -4.306719003492795 106.96636427659668
    vertex 32.942762597533694 -4.306719003492839 106.60459284423723
  endloop
endfacet
facet normal 6.241023529096648e-13 -1.0 3.7870835273038004e-13
  outer loop
    vertex 32.79291196387733 -4.306719003492501 107.74282141190425
    vertex 32.942762597533694 -4.306719003492839 106.60459284423723
    vertex 32.94276259766626 -4.306719003492271 108.10459284423723
  endloop
endfacet
facet normal 6.241023529096648e-13 -1.0 3.7870835273038004e-13
  outer loop
    vertex 32.94276259766626 -4.306719003492271 108.10459284423723
    vertex 32.942762597533694 -4.306719003492839 106.60459284423723
    vertex 33.18114053140307 -4.306719003492809 106.29393267243634
  endloop
endfacet
facet normal 6.241023529096648e-13 -1.0 3.7870835273038004e-13
  outer loop
    vertex 32.94276259766626 -4.306719003492271 108.10459284423723
    vertex 33.18114053140307 -4.306719003492809 106.29393267243634
    vertex 33.181140531590536 -4.306719003492005 108.41525301599597
  endloop
endfacet
facet normal 6.241023529096648e-13 -1.0 3.7870835273038004e-13
  outer loop
    vertex 33.181140531590536 -4.306719003492005 108.41525301599597
    vertex 33.18114053140307 -4.306719003492809 106.29393267243634
    vertex 33.491800703161836 -4.306719003492703 106.05555473851204
  endloop
endfacet
facet normal 6.241023529096648e-13 -1.0 3.7870835273038004e-13
  outer loop
    vertex 33.181140531590536 -4.306719003492005 108.41525301599597
    vertex 33.491800703161836 -4.306719003492703 106.05555473851204
    vertex 33.49180070339142 -4.306719003491721 108.65363094986537
  endloop
endfacet
facet normal 6.241023529096648e-13 -1.0 3.7870835273038004e-13
  outer loop
    vertex 33.49180070339142 -4.306719003491721 108.65363094986537
    vertex 33.491800703161836 -4.306719003492703 106.05555473851204
    vertex 33.853572135750895 -4.306719003491438 108.80348158359033
  endloop
endfacet
facet normal 6.241023529096648e-13 -1.0 3.7870835273038004e-13
  outer loop
    vertex 33.853572135750895 -4.306719003491438 108.80348158359033
    vertex 33.491800703161836 -4.306719003492703 106.05555473851204
    vertex 33.8535721354948 -4.306719003492535 105.90570410472313
  endloop
endfacet
facet normal 6.241023529096648e-13 -1.0 3.7870835273038004e-13
  outer loop
    vertex 33.853572135750895 -4.306719003491438 108.80348158359033
    vertex 33.8535721354948 -4.306719003492535 105.90570410472313
    vertex 34.241800703144065 -4.3067190034923115 105.85459284412242
  endloop
endfacet
facet normal 6.241023529096648e-13 -1.0 3.7870835273038004e-13
  outer loop
    vertex 33.853572135750895 -4.306719003491438 108.80348158359033
    vertex 34.241800703144065 -4.3067190034923115 105.85459284412242
    vertex 34.24180070340919 -4.306719003491175 108.85459284412241
  endloop
endfacet
facet normal 6.241023529096648e-13 -1.0 3.7870835273038004e-13
  outer loop
    vertex 34.24180070340919 -4.306719003491175 108.85459284412241
    vertex 34.241800703144065 -4.3067190034923115 105.85459284412242
    vertex 34.63002927080236 -4.30671900349205 105.90570410465452
  endloop
endfacet
facet normal 6.241023529096648e-13 -1.0 3.7870835273038004e-13
  outer loop
    vertex 34.24180070340919 -4.306719003491175 108.85459284412241
    vertex 34.63002927080236 -4.30671900349205 105.90570410465452
    vertex 34.63002927105845 -4.3067190034909535 108.8034815835217
  endloop
endfacet
facet normal 6.241023529096648e-13 -1.0 3.7870835273038004e-13
  outer loop
    vertex 34.63002927105845 -4.3067190034909535 108.8034815835217
    vertex 34.63002927080236 -4.30671900349205 105.90570410465452
    vertex 34.991800703161836 -4.306719003491767 106.05555473837948
  endloop
endfacet
facet normal 6.241023529096648e-13 -1.0 3.7870835273038004e-13
  outer loop
    vertex 34.63002927105845 -4.3067190034909535 108.8034815835217
    vertex 34.991800703161836 -4.306719003491767 106.05555473837948
    vertex 34.99180070339141 -4.306719003490785 108.65363094973279
  endloop
endfacet
facet normal 6.241023529096648e-13 -1.0 3.7870835273038004e-13
  outer loop
    vertex 34.99180070339141 -4.306719003490785 108.65363094973279
    vertex 34.991800703161836 -4.306719003491767 106.05555473837948
    vertex 35.30246087515019 -4.30671900349068 108.4152530158085
  endloop
endfacet
facet normal 6.241023529096648e-13 -1.0 3.7870835273038004e-13
  outer loop
    vertex 35.30246087515019 -4.30671900349068 108.4152530158085
    vertex 34.991800703161836 -4.306719003491767 106.05555473837948
    vertex 35.30246087496271 -4.306719003491484 106.29393267224887
  endloop
endfacet
facet normal 6.241023529096648e-13 -1.0 3.7870835273038004e-13
  outer loop
    vertex 35.30246087515019 -4.30671900349068 108.4152530158085
    vertex 35.30246087496271 -4.306719003491484 106.29393267224887
    vertex 35.540838808886996 -4.306719003491217 106.60459284400763
  endloop
endfacet
facet normal 6.241023529096648e-13 -1.0 3.7870835273038004e-13
  outer loop
    vertex 35.30246087515019 -4.30671900349068 108.4152530158085
    vertex 35.540838808886996 -4.306719003491217 106.60459284400763
    vertex 35.540838809019554 -4.306719003490649 108.10459284400761
  endloop
endfacet
facet normal 6.241023529096648e-13 -1.0 3.7870835273038004e-13
  outer loop
    vertex 35.540838809019554 -4.306719003490649 108.10459284400761
    vertex 35.540838808886996 -4.306719003491217 106.60459284400763
    vertex 35.69068944267592 -4.306719003490987 106.96636427634058
  endloop
endfacet
facet normal 6.241023529096648e-13 -1.0 3.7870835273038004e-13
  outer loop
    vertex 35.540838809019554 -4.306719003490649 108.10459284400761
    vertex 35.69068944267592 -4.306719003490987 106.96636427634058
    vertex 35.690689442744535 -4.306719003490692 107.74282141164814
  endloop
endfacet
facet normal 6.241023529096648e-13 -1.0 3.7870835273038004e-13
  outer loop
    vertex 35.690689442744535 -4.306719003490692 107.74282141164814
    vertex 35.69068944267592 -4.306719003490987 106.96636427634058
    vertex 35.741800703276624 -4.306719003490807 107.35459284398985
  endloop
endfacet
facet normal -0.96592582631194 -7.008535151311934e-13 -0.2588190450171623
  outer loop
    vertex 35.690689442744535 -4.306719003490692 107.74282141164814
    vertex 35.540838809022056 -8.306719003490649 108.10459284400913
    vertex 35.540838809019554 -4.306719003490649 108.10459284400761
  endloop
endfacet
facet normal -0.8660254038286267 -7.298426685451938e-13 -0.4999999999234644
  outer loop
    vertex 35.540838809022056 -8.306719003490649 108.10459284400913
    vertex 35.690689442744535 -4.306719003490692 107.74282141164814
    vertex 35.69068944274704 -8.306719003490693 107.74282141164967
  endloop
endfacet
facet normal -0.8660254038286264 -7.298426685451936e-13 -0.49999999992346444
  outer loop
    vertex 35.540838809019554 -4.306719003490649 108.10459284400761
    vertex 35.30246087515268 -8.306719003490679 108.41525301581001
    vertex 35.30246087515019 -4.30671900349068 108.4152530158085
  endloop
endfacet
facet normal -0.7071067812490369 -7.090942502198771e-13 -0.7071067811240581
  outer loop
    vertex 35.30246087515268 -8.306719003490679 108.41525301581001
    vertex 35.540838809019554 -4.306719003490649 108.10459284400761
    vertex 35.540838809022056 -8.306719003490649 108.10459284400913
  endloop
endfacet
facet normal -0.5000000000765319 -6.400222305757297e-13 -0.866025403740253
  outer loop
    vertex 34.99180070339141 -4.306719003490785 108.65363094973279
    vertex 35.30246087515268 -8.306719003490679 108.41525301581001
    vertex 34.99180070339391 -8.306719003490784 108.65363094973432
  endloop
endfacet
facet normal -0.7071067812490369 -7.090942502198771e-13 -0.7071067811240581
  outer loop
    vertex 35.30246087515268 -8.306719003490679 108.41525301581001
    vertex 34.99180070339141 -4.306719003490785 108.65363094973279
    vertex 35.30246087515019 -4.30671900349068 108.4152530158085
  endloop
endfacet
facet normal -0.25881904518788845 -5.273337536045957e-13 -0.9659258262661942
  outer loop
    vertex 34.63002927105845 -4.3067190034909535 108.8034815835217
    vertex 34.99180070339391 -8.306719003490784 108.65363094973432
    vertex 34.630029271060955 -8.306719003490953 108.80348158352324
  endloop
endfacet
facet normal -0.5000000000765319 -6.400222305757297e-13 -0.866025403740253
  outer loop
    vertex 34.99180070339391 -8.306719003490784 108.65363094973432
    vertex 34.63002927105845 -4.3067190034909535 108.8034815835217
    vertex 34.99180070339141 -4.306719003490785 108.65363094973279
  endloop
endfacet
facet normal -8.83678005620236e-11 -3.7870835278553063e-13 -1.0
  outer loop
    vertex 34.24180070340919 -4.306719003491175 108.85459284412241
    vertex 34.630029271060955 -8.306719003490953 108.80348158352324
    vertex 34.24180070341169 -8.306719003491175 108.85459284412393
  endloop
endfacet
facet normal -0.25881904518788873 -5.273337536045959e-13 -0.9659258262661942
  outer loop
    vertex 34.630029271060955 -8.306719003490953 108.80348158352324
    vertex 34.24180070340919 -4.306719003491175 108.85459284412241
    vertex 34.63002927105845 -4.3067190034909535 108.8034815835217
  endloop
endfacet
facet normal -0.7071067811240681 -1.7351976152660983e-13 0.7071067812490271
  outer loop
    vertex 35.30246087496271 -4.306719003491484 106.29393267224887
    vertex 35.5408388088895 -8.306719003491217 106.60459284400913
    vertex 35.540838808886996 -4.306719003491217 106.60459284400763
  endloop
endfacet
facet normal -0.8660254037402517 -3.511343157596592e-13 0.5000000000765342
  outer loop
    vertex 35.5408388088895 -8.306719003491217 106.60459284400913
    vertex 35.30246087496271 -4.306719003491484 106.29393267224887
    vertex 35.30246087496521 -8.306719003491482 106.29393267225039
  endloop
endfacet
facet normal -0.7071067811240683 -1.7351976152661018e-13 0.7071067812490268
  outer loop
    vertex 35.30246087496521 -8.306719003491482 106.29393267225039
    vertex 34.991800703161836 -4.306719003491767 106.05555473837948
    vertex 34.99180070316434 -8.306719003491766 106.05555473838099
  endloop
endfacet
facet normal -0.4999999999234617 1.5919877699537276e-14 0.866025403828628
  outer loop
    vertex 34.991800703161836 -4.306719003491767 106.05555473837948
    vertex 35.30246087496521 -8.306719003491482 106.29393267225039
    vertex 35.30246087496271 -4.306719003491484 106.29393267224887
  endloop
endfacet
facet normal -0.9659258262661938 -5.04819646650588e-13 0.25881904518788973
  outer loop
    vertex 35.69068944267592 -4.306719003490987 106.96636427634058
    vertex 35.741800703279125 -8.306719003490809 107.35459284399137
    vertex 35.741800703276624 -4.306719003490807 107.35459284398985
  endloop
endfacet
facet normal -1.0 -6.241023528761964e-13 8.837504529436909e-11
  outer loop
    vertex 35.741800703279125 -8.306719003490809 107.35459284399137
    vertex 35.69068944267592 -4.306719003490987 106.96636427634058
    vertex 35.69068944267842 -8.306719003490986 106.96636427634212
  endloop
endfacet
facet normal -0.8660254037402515 -3.511343157596589e-13 0.5000000000765343
  outer loop
    vertex 35.540838808886996 -4.306719003491217 106.60459284400763
    vertex 35.69068944267842 -8.306719003490986 106.96636427634212
    vertex 35.69068944267592 -4.306719003490987 106.96636427634058
  endloop
endfacet
facet normal -0.9659258262661938 -5.048196466505882e-13 0.2588190451878897
  outer loop
    vertex 35.69068944267842 -8.306719003490986 106.96636427634212
    vertex 35.540838808886996 -4.306719003491217 106.60459284400763
    vertex 35.5408388088895 -8.306719003491217 106.60459284400913
  endloop
endfacet
facet normal 0.8660254037402515 3.511343157596589e-13 -0.5000000000765343
  outer loop
    vertex 32.942762597668754 -8.306719003492269 108.10459284423874
    vertex 32.79291196387733 -4.306719003492501 107.74282141190425
    vertex 32.94276259766626 -4.306719003492271 108.10459284423723
  endloop
endfacet
facet normal 0.9659258262661938 5.048196466505882e-13 -0.2588190451878897
  outer loop
    vertex 32.79291196387733 -4.306719003492501 107.74282141190425
    vertex 32.942762597668754 -8.306719003492269 108.10459284423874
    vertex 32.79291196387984 -8.3067190034925 107.74282141190575
  endloop
endfacet
facet normal 0.9659258262661938 5.04819646650588e-13 -0.25881904518788973
  outer loop
    vertex 32.79291196387984 -8.3067190034925 107.74282141190575
    vertex 32.74180070327663 -4.306719003492679 107.35459284425498
    vertex 32.79291196387733 -4.306719003492501 107.74282141190425
  endloop
endfacet
facet normal 1.0 6.241023528761961e-13 -8.837598096090813e-11
  outer loop
    vertex 32.74180070327663 -4.306719003492679 107.35459284425498
    vertex 32.79291196387984 -8.3067190034925 107.74282141190575
    vertex 32.741800703279125 -8.30671900349268 107.35459284425652
  endloop
endfacet
facet normal 1.0 6.241023528761962e-13 -8.83758383831498e-11
  outer loop
    vertex 32.741800703279125 -8.30671900349268 107.35459284425652
    vertex 32.79291196380871 -4.306719003492795 106.96636427659668
    vertex 32.74180070327663 -4.306719003492679 107.35459284425498
  endloop
endfacet
facet normal 0.9659258263119397 7.008535151311941e-13 0.2588190450171641
  outer loop
    vertex 32.79291196380871 -4.306719003492795 106.96636427659668
    vertex 32.741800703279125 -8.30671900349268 107.35459284425652
    vertex 32.792911963811214 -8.306719003492795 106.9663642765982
  endloop
endfacet
facet normal 0.7071067811240681 1.7351976152660983e-13 -0.7071067812490271
  outer loop
    vertex 33.18114053159304 -8.306719003492004 108.41525301599748
    vertex 32.94276259766626 -4.306719003492271 108.10459284423723
    vertex 33.181140531590536 -4.306719003492005 108.41525301599597
  endloop
endfacet
facet normal 0.8660254037402517 3.511343157596592e-13 -0.5000000000765342
  outer loop
    vertex 32.94276259766626 -4.306719003492271 108.10459284423723
    vertex 33.18114053159304 -8.306719003492004 108.41525301599748
    vertex 32.942762597668754 -8.306719003492269 108.10459284423874
  endloop
endfacet
facet normal 0.25881904501715103 -2.042746035692907e-13 -0.965925826311943
  outer loop
    vertex 33.853572135750895 -4.306719003491438 108.80348158359033
    vertex 34.24180070341169 -8.306719003491175 108.85459284412393
    vertex 33.853572135753396 -8.306719003491438 108.80348158359185
  endloop
endfacet
facet normal -8.836788967312256e-11 -3.787083527855307e-13 -1.0
  outer loop
    vertex 34.24180070341169 -8.306719003491175 108.85459284412393
    vertex 33.853572135750895 -4.306719003491438 108.80348158359033
    vertex 34.24180070340919 -4.306719003491175 108.85459284412241
  endloop
endfacet
facet normal 0.49999999992346184 -1.591987769953729e-14 -0.866025403828628
  outer loop
    vertex 33.49180070339142 -4.306719003491721 108.65363094986537
    vertex 33.853572135753396 -8.306719003491438 108.80348158359185
    vertex 33.49180070339392 -8.306719003491718 108.65363094986688
  endloop
endfacet
facet normal 0.25881904501715103 -2.0427460356929083e-13 -0.9659258263119431
  outer loop
    vertex 33.853572135753396 -8.306719003491438 108.80348158359185
    vertex 33.49180070339142 -4.306719003491721 108.65363094986537
    vertex 33.853572135750895 -4.306719003491438 108.80348158359033
  endloop
endfacet
facet normal 0.7071067811240683 1.7351976152661018e-13 -0.7071067812490268
  outer loop
    vertex 33.181140531590536 -4.306719003492005 108.41525301599597
    vertex 33.49180070339392 -8.306719003491718 108.65363094986688
    vertex 33.18114053159304 -8.306719003492004 108.41525301599748
  endloop
endfacet
facet normal 0.4999999999234617 -1.5919877699537276e-14 -0.866025403828628
  outer loop
    vertex 33.49180070339392 -8.306719003491718 108.65363094986688
    vertex 33.181140531590536 -4.306719003492005 108.41525301599597
    vertex 33.49180070339142 -4.306719003491721 108.65363094986537
  endloop
endfacet
facet normal -0.25881904501715103 2.042746035692907e-13 0.965925826311943
  outer loop
    vertex 34.63002927080486 -8.306719003492049 105.90570410465604
    vertex 34.241800703144065 -4.3067190034923115 105.85459284412242
    vertex 34.241800703146566 -8.306719003492312 105.85459284412393
  endloop
endfacet
facet normal 8.836788967312256e-11 3.787083527855307e-13 1.0
  outer loop
    vertex 34.241800703144065 -4.3067190034923115 105.85459284412242
    vertex 34.63002927080486 -8.306719003492049 105.90570410465604
    vertex 34.63002927080236 -4.30671900349205 105.90570410465452
  endloop
endfacet
facet normal 0.25881904518788845 5.273337536045957e-13 0.9659258262661942
  outer loop
    vertex 33.8535721354973 -8.306719003492534 105.90570410472463
    vertex 33.491800703161836 -4.306719003492703 106.05555473851204
    vertex 33.49180070316434 -8.306719003492702 106.05555473851355
  endloop
endfacet
facet normal 0.5000000000765319 6.400222305757297e-13 0.866025403740253
  outer loop
    vertex 33.491800703161836 -4.306719003492703 106.05555473851204
    vertex 33.8535721354973 -8.306719003492534 105.90570410472463
    vertex 33.8535721354948 -4.306719003492535 105.90570410472313
  endloop
endfacet
facet normal 0.9659258263119395 7.008535151311939e-13 0.2588190450171641
  outer loop
    vertex 32.792911963811214 -8.306719003492795 106.9663642765982
    vertex 32.942762597533694 -4.306719003492839 106.60459284423723
    vertex 32.79291196380871 -4.306719003492795 106.96636427659668
  endloop
endfacet
facet normal 0.8660254038286253 7.298426685451938e-13 0.4999999999234667
  outer loop
    vertex 32.942762597533694 -4.306719003492839 106.60459284423723
    vertex 32.792911963811214 -8.306719003492795 106.9663642765982
    vertex 32.942762597536195 -8.306719003492839 106.60459284423874
  endloop
endfacet
facet normal 0.5000000000765319 6.400222305757297e-13 0.866025403740253
  outer loop
    vertex 33.49180070316434 -8.306719003492702 106.05555473851355
    vertex 33.18114053140307 -4.306719003492809 106.29393267243634
    vertex 33.18114053140557 -8.306719003492807 106.29393267243786
  endloop
endfacet
facet normal 0.7071067812490369 7.090942502198771e-13 0.7071067811240581
  outer loop
    vertex 33.18114053140307 -4.306719003492809 106.29393267243634
    vertex 33.49180070316434 -8.306719003492702 106.05555473851355
    vertex 33.491800703161836 -4.306719003492703 106.05555473851204
  endloop
endfacet
facet normal 0.866025403828625 7.298426685451937e-13 0.49999999992346683
  outer loop
    vertex 32.942762597536195 -8.306719003492839 106.60459284423874
    vertex 33.18114053140307 -4.306719003492809 106.29393267243634
    vertex 32.942762597533694 -4.306719003492839 106.60459284423723
  endloop
endfacet
facet normal 0.7071067812490369 7.090942502198771e-13 0.7071067811240581
  outer loop
    vertex 33.18114053140307 -4.306719003492809 106.29393267243634
    vertex 32.942762597536195 -8.306719003492839 106.60459284423874
    vertex 33.18114053140557 -8.306719003492807 106.29393267243786
  endloop
endfacet
facet normal 8.83678005620236e-11 3.7870835278553063e-13 1.0
  outer loop
    vertex 34.241800703146566 -8.306719003492312 105.85459284412393
    vertex 33.8535721354948 -4.306719003492535 105.90570410472313
    vertex 33.8535721354973 -8.306719003492534 105.90570410472463
  endloop
endfacet
facet normal 0.25881904518788873 5.273337536045959e-13 0.9659258262661942
  outer loop
    vertex 33.8535721354948 -4.306719003492535 105.90570410472313
    vertex 34.241800703146566 -8.306719003492312 105.85459284412393
    vertex 34.241800703144065 -4.3067190034923115 105.85459284412242
  endloop
endfacet
facet normal -0.49999999992346184 1.591987769953729e-14 0.866025403828628
  outer loop
    vertex 34.99180070316434 -8.306719003491766 106.05555473838099
    vertex 34.63002927080236 -4.30671900349205 105.90570410465452
    vertex 34.63002927080486 -8.306719003492049 105.90570410465604
  endloop
endfacet
facet normal -0.25881904501715103 2.0427460356929083e-13 0.9659258263119431
  outer loop
    vertex 34.63002927080236 -4.30671900349205 105.90570410465452
    vertex 34.99180070316434 -8.306719003491766 106.05555473838099
    vertex 34.991800703161836 -4.306719003491767 106.05555473837948
  endloop
endfacet
facet normal -0.25325389633153617 -0.2532676582166495 -0.9336583729043243
  outer loop
    vertex 36.205902318107725 -12.270820618630616 103.52446582499674
    vertex 40.205902317926736 -8.306719003493594 101.36421178687154
    vertex 40.205902318025075 -12.306719003563638 102.46228799817146
  endloop
endfacet
facet normal -0.25325389633153617 -0.2532676582166495 -0.9336583729043243
  outer loop
    vertex 40.205902317926736 -8.306719003493594 101.36421178687154
    vertex 36.205902318107725 -12.270820618630616 103.52446582499674
    vertex 36.20590231801263 -8.306719003493715 102.46228799862979
  endloop
endfacet
facet normal -0.2647252758224416 -4.3000776029242844e-13 -0.9643238710831192
  outer loop
    vertex 36.20590231802246 63.69328099642641 102.462287998595
    vertex 40.205902317926736 -8.306719003493594 101.36421178687154
    vertex 36.20590231801263 -8.306719003493715 102.46228799862979
  endloop
endfacet
facet normal -0.2647252758224416 -4.3000776029242844e-13 -0.9643238710831192
  outer loop
    vertex 40.205902317926736 -8.306719003493594 101.36421178687154
    vertex 36.20590231802246 63.69328099642641 102.462287998595
    vertex 40.205902317936555 63.69328099642413 101.36421178683672
  endloop
endfacet
facet normal -0.008974234833079579 -0.9999597307437739 1.74034488378804e-13
  outer loop
    vertex 40.205902318025075 -12.306719003563638 102.46228799817146
    vertex 40.20590231828795 -12.306719003565474 105.46228799817146
    vertex 36.205902318107725 -12.270820618630616 103.52446582499674
  endloop
endfacet
facet normal -1.364600939079056e-13 -1.0 -6.122995679589931e-13
  outer loop
    vertex 40.205902318025075 -12.306719003563638 102.46228799817146
    vertex 72.20590231810833 -12.306719003569842 105.4622879953478
    vertex 40.20590231828795 -12.306719003565474 105.46228799817146
  endloop
endfacet
facet normal -1.364600939079056e-13 -1.0 -6.122995679589931e-13
  outer loop
    vertex 72.20590231810833 -12.306719003569842 105.4622879953478
    vertex 40.205902318025075 -12.306719003563638 102.46228799817146
    vertex 68.20590231820029 -12.306719003567459 102.46228799570078
  endloop
endfacet
facet normal -1.364600939079056e-13 -1.0 -6.122995679589931e-13
  outer loop
    vertex 72.20590231810833 -12.306719003569842 105.4622879953478
    vertex 68.20590231820029 -12.306719003567459 102.46228799570078
    vertex 72.20590231793564 -12.306719003568679 103.56036420662286
  endloop
endfacet
facet normal 0.7071067811240552 -9.648238449029506e-14 -0.7071067812490399
  outer loop
    vertex 33.18114053158122 59.69328099642795 108.41525301597642
    vertex 32.94276259765625 63.69328099642781 108.10459284421643
    vertex 33.181140531580525 63.69328099642796 108.41525301597517
  endloop
endfacet
facet normal 0.8660254037402514 -4.759949366387243e-15 -0.500000000076535
  outer loop
    vertex 32.94276259765625 63.69328099642781 108.10459284421643
    vertex 33.18114053158122 59.69328099642795 108.41525301597642
    vertex 32.94276259765694 59.6932809964278 108.10459284421768
  endloop
endfacet
facet normal 0.5000000000765322 3.5501493496769575e-13 0.8660254037402527
  outer loop
    vertex 33.4918007031525 59.69328099642726 106.05555473849249
    vertex 33.181140531393055 63.69328099642729 106.29393267241555
    vertex 33.18114053139375 59.69328099642728 106.29393267241679
  endloop
endfacet
facet normal 0.7071067812490498 3.416861288538852e-13 0.7071067811240453
  outer loop
    vertex 33.181140531393055 63.69328099642729 106.29393267241555
    vertex 33.4918007031525 59.69328099642726 106.05555473849249
    vertex 33.4918007031518 63.69328099642727 106.05555473849127
  endloop
endfacet
facet normal 0.9659258263119401 2.4766767546308323e-13 0.2588190450171624
  outer loop
    vertex 32.7929119637994 59.69328099642742 106.96636427657715
    vertex 32.94276259752368 63.69328099642733 106.60459284421643
    vertex 32.79291196379871 63.693280996427426 106.9663642765759
  endloop
endfacet
facet normal 0.8660254038286267 3.050719777217112e-13 0.4999999999234644
  outer loop
    vertex 32.94276259752368 63.69328099642733 106.60459284421643
    vertex 32.7929119637994 59.69328099642742 106.96636427657715
    vertex 32.94276259752438 59.69328099642733 106.60459284421768
  endloop
endfacet
facet normal -0.9659258262661934 -8.728686844064845e-14 0.2588190451878914
  outer loop
    vertex 35.690689442665914 63.69328099642793 106.96636427631981
    vertex 35.74180070326731 59.69328099642805 107.35459284397032
    vertex 35.74180070326661 63.69328099642806 107.35459284396907
  endloop
endfacet
facet normal -1.0 -1.733852304118292e-13 8.83739581389616e-11
  outer loop
    vertex 35.74180070326731 59.69328099642805 107.35459284397032
    vertex 35.690689442665914 63.69328099642793 106.96636427631981
    vertex 35.6906894426666 59.69328099642793 106.96636427632104
  endloop
endfacet
facet normal -0.49999999992346256 1.8162970455586775e-13 0.8660254038286277
  outer loop
    vertex 34.99180070315249 59.69328099642753 106.05555473835993
    vertex 34.63002927079235 63.69328099642741 105.90570410463373
    vertex 34.630029270793045 59.69328099642741 105.90570410463496
  endloop
endfacet
facet normal -0.2588190450171618 2.5439926041323464e-13 0.9659258263119403
  outer loop
    vertex 34.63002927079235 63.69328099642741 105.90570410463373
    vertex 34.99180070315249 59.69328099642753 106.05555473835993
    vertex 34.9918007031518 63.69328099642754 106.05555473835868
  endloop
endfacet
facet normal 8.838167516013112e-11 3.098319270880997e-13 1.0
  outer loop
    vertex 34.24180070313475 59.69328099642733 105.85459284410288
    vertex 33.8535721354848 63.693280996427276 105.90570410470235
    vertex 33.853572135485486 59.693280996427276 105.90570410470359
  endloop
endfacet
facet normal 0.25881904518787807 3.4415005995337564e-13 0.965925826266197
  outer loop
    vertex 33.8535721354848 63.693280996427276 105.90570410470235
    vertex 34.24180070313475 59.69328099642733 105.85459284410288
    vertex 34.241800703134054 63.69328099642733 105.85459284410165
  endloop
endfacet
facet normal -0.7071067811240552 9.648238449029506e-14 0.7071067812490399
  outer loop
    vertex 35.3024608749527 63.69328099642765 106.29393267222808
    vertex 35.54083880887768 59.69328099642778 106.60459284398806
    vertex 35.540838808876984 63.69328099642779 106.60459284398682
  endloop
endfacet
facet normal -0.8660254037402498 4.759949366388152e-15 0.5000000000765374
  outer loop
    vertex 35.54083880887768 59.69328099642778 106.60459284398806
    vertex 35.3024608749527 63.69328099642765 106.29393267222808
    vertex 35.3024608749534 59.693280996427646 106.29393267222932
  endloop
endfacet
facet normal -0.25881904518787874 -3.4415005995337564e-13 -0.9659258262661968
  outer loop
    vertex 34.630029271048436 63.693280996428314 108.80348158350093
    vertex 34.991800703382125 59.693280996428335 108.65363094971325
    vertex 34.63002927104914 59.693280996428314 108.80348158350216
  endloop
endfacet
facet normal -0.5000000000765311 -3.550149349676957e-13 -0.8660254037402534
  outer loop
    vertex 34.991800703382125 59.693280996428335 108.65363094971325
    vertex 34.630029271048436 63.693280996428314 108.80348158350093
    vertex 34.99180070338143 63.693280996428335 108.65363094971201
  endloop
endfacet
facet normal 0.7071067811240563 -9.64823844902945e-14 -0.7071067812490387
  outer loop
    vertex 33.181140531580525 63.69328099642796 108.41525301597517
    vertex 33.491800703382125 59.693280996428065 108.6536309498458
    vertex 33.18114053158122 59.69328099642795 108.41525301597642
  endloop
endfacet
facet normal 0.49999999992346156 -1.8162970455586816e-13 -0.8660254038286282
  outer loop
    vertex 33.491800703382125 59.693280996428065 108.6536309498458
    vertex 33.181140531580525 63.69328099642796 108.41525301597517
    vertex 33.49180070338143 63.693280996428065 108.65363094984457
  endloop
endfacet
facet normal 0.866025403740252 -4.759949366386662e-15 -0.5000000000765337
  outer loop
    vertex 32.94276259765694 59.6932809964278 108.10459284421768
    vertex 32.79291196386732 63.69328099642766 107.74282141188347
    vertex 32.94276259765625 63.69328099642781 108.10459284421643
  endloop
endfacet
facet normal 0.9659258262661937 8.728686844064895e-14 -0.2588190451878897
  outer loop
    vertex 32.79291196386732 63.69328099642766 107.74282141188347
    vertex 32.94276259765694 59.6932809964278 108.10459284421768
    vertex 32.79291196386802 59.69328099642766 107.7428214118847
  endloop
endfacet
facet normal -8.838167516013112e-11 -3.098319270880997e-13 -1.0
  outer loop
    vertex 34.24180070339918 63.69328099642827 108.85459284410163
    vertex 34.63002927104914 59.693280996428314 108.80348158350216
    vertex 34.241800703399875 59.693280996428264 108.85459284410287
  endloop
endfacet
facet normal -0.25881904518787807 -3.4415005995337564e-13 -0.965925826266197
  outer loop
    vertex 34.63002927104914 59.693280996428314 108.80348158350216
    vertex 34.24180070339918 63.69328099642827 108.85459284410163
    vertex 34.630029271048436 63.693280996428314 108.80348158350093
  endloop
endfacet
facet normal -0.5000000000765322 -3.5501493496769575e-13 -0.8660254037402527
  outer loop
    vertex 34.99180070338143 63.693280996428335 108.65363094971201
    vertex 35.302460875140866 59.693280996428314 108.41525301578895
    vertex 34.991800703382125 59.693280996428335 108.65363094971325
  endloop
endfacet
facet normal -0.7071067812490498 -3.416861288538852e-13 -0.7071067811240453
  outer loop
    vertex 35.302460875140866 59.693280996428314 108.41525301578895
    vertex 34.99180070338143 63.693280996428335 108.65363094971201
    vertex 35.30246087514018 63.693280996428314 108.4152530157877
  endloop
endfacet
facet normal -0.25881904501716074 2.5439926041323504e-13 0.9659258263119406
  outer loop
    vertex 34.630029270793045 59.69328099642741 105.90570410463496
    vertex 34.241800703134054 63.69328099642733 105.85459284410165
    vertex 34.24180070313475 59.69328099642733 105.85459284410288
  endloop
endfacet
facet normal 8.83825306266811e-11 3.098319270880999e-13 1.0
  outer loop
    vertex 34.241800703134054 63.69328099642733 105.85459284410165
    vertex 34.630029270793045 59.69328099642741 105.90570410463496
    vertex 34.63002927079235 63.69328099642741 105.90570410463373
  endloop
endfacet
facet normal -1.0 -1.7338523041182916e-13 8.837410962782981e-11
  outer loop
    vertex 35.74180070326661 63.69328099642806 107.35459284396907
    vertex 35.69068944273523 59.693280996428165 107.74282141162861
    vertex 35.690689442734524 63.69328099642817 107.74282141162736
  endloop
endfacet
facet normal -0.9659258263119402 -2.4766767546308323e-13 -0.2588190450171623
  outer loop
    vertex 35.69068944273523 59.693280996428165 107.74282141162861
    vertex 35.74180070326661 63.69328099642806 107.35459284396907
    vertex 35.74180070326731 59.69328099642805 107.35459284397032
  endloop
endfacet
facet normal 0.8660254038286265 3.050719777217112e-13 0.49999999992346433
  outer loop
    vertex 32.94276259752438 59.69328099642733 106.60459284421768
    vertex 33.181140531393055 63.69328099642729 106.29393267241555
    vertex 32.94276259752368 63.69328099642733 106.60459284421643
  endloop
endfacet
facet normal 0.7071067812490498 3.416861288538852e-13 0.7071067811240453
  outer loop
    vertex 33.181140531393055 63.69328099642729 106.29393267241555
    vertex 32.94276259752438 59.69328099642733 106.60459284421768
    vertex 33.18114053139375 59.69328099642728 106.29393267241679
  endloop
endfacet
facet normal 1.0 1.7338523041182886e-13 -8.837504529436887e-11
  outer loop
    vertex 32.74180070326731 59.69328099642753 107.35459284423544
    vertex 32.79291196379871 63.693280996427426 106.9663642765759
    vertex 32.74180070326662 63.69328099642754 107.35459284423419
  endloop
endfacet
facet normal 0.9659258263119402 2.4766767546308323e-13 0.2588190450171623
  outer loop
    vertex 32.79291196379871 63.693280996427426 106.9663642765759
    vertex 32.74180070326731 59.69328099642753 107.35459284423544
    vertex 32.7929119637994 59.69328099642742 106.96636427657715
  endloop
endfacet
facet normal 0.49999999992346256 -1.8162970455586775e-13 -0.8660254038286277
  outer loop
    vertex 33.49180070338143 63.693280996428065 108.65363094984457
    vertex 33.85357213574158 59.69328099642818 108.80348158357077
    vertex 33.491800703382125 59.693280996428065 108.6536309498458
  endloop
endfacet
facet normal 0.2588190450171618 -2.5439926041323464e-13 -0.9659258263119403
  outer loop
    vertex 33.85357213574158 59.69328099642818 108.80348158357077
    vertex 33.49180070338143 63.693280996428065 108.65363094984457
    vertex 33.85357213574088 63.69328099642818 108.80348158356955
  endloop
endfacet
facet normal -1.733852304392103e-13 1.0 -3.098319270727756e-13
  outer loop
    vertex 32.79291196386802 59.69328099642766 107.7428214118847
    vertex 32.7929119637994 59.69328099642742 106.96636427657715
    vertex 32.74180070326731 59.69328099642753 107.35459284423544
  endloop
endfacet
facet normal -1.733852304392103e-13 1.0 -3.098319270727756e-13
  outer loop
    vertex 32.7929119637994 59.69328099642742 106.96636427657715
    vertex 32.79291196386802 59.69328099642766 107.7428214118847
    vertex 32.94276259765694 59.6932809964278 108.10459284421768
  endloop
endfacet
facet normal -1.733852304392103e-13 1.0 -3.098319270727756e-13
  outer loop
    vertex 32.7929119637994 59.69328099642742 106.96636427657715
    vertex 32.94276259765694 59.6932809964278 108.10459284421768
    vertex 32.94276259752438 59.69328099642733 106.60459284421768
  endloop
endfacet
facet normal -1.733852304392103e-13 1.0 -3.098319270727756e-13
  outer loop
    vertex 32.94276259752438 59.69328099642733 106.60459284421768
    vertex 32.94276259765694 59.6932809964278 108.10459284421768
    vertex 33.18114053158122 59.69328099642795 108.41525301597642
  endloop
endfacet
facet normal -1.733852304392103e-13 1.0 -3.098319270727756e-13
  outer loop
    vertex 32.94276259752438 59.69328099642733 106.60459284421768
    vertex 33.18114053158122 59.69328099642795 108.41525301597642
    vertex 33.18114053139375 59.69328099642728 106.29393267241679
  endloop
endfacet
facet normal -1.733852304392103e-13 1.0 -3.098319270727756e-13
  outer loop
    vertex 33.18114053139375 59.69328099642728 106.29393267241679
    vertex 33.18114053158122 59.69328099642795 108.41525301597642
    vertex 33.491800703382125 59.693280996428065 108.6536309498458
  endloop
endfacet
facet normal -1.733852304392103e-13 1.0 -3.098319270727756e-13
  outer loop
    vertex 33.18114053139375 59.69328099642728 106.29393267241679
    vertex 33.491800703382125 59.693280996428065 108.6536309498458
    vertex 33.4918007031525 59.69328099642726 106.05555473849249
  endloop
endfacet
facet normal -1.733852304392103e-13 1.0 -3.098319270727756e-13
  outer loop
    vertex 33.4918007031525 59.69328099642726 106.05555473849249
    vertex 33.491800703382125 59.693280996428065 108.6536309498458
    vertex 33.853572135485486 59.693280996427276 105.90570410470359
  endloop
endfacet
facet normal -1.733852304392103e-13 1.0 -3.098319270727756e-13
  outer loop
    vertex 33.853572135485486 59.693280996427276 105.90570410470359
    vertex 33.491800703382125 59.693280996428065 108.6536309498458
    vertex 33.85357213574158 59.69328099642818 108.80348158357077
  endloop
endfacet
facet normal -1.733852304392103e-13 1.0 -3.098319270727756e-13
  outer loop
    vertex 33.853572135485486 59.693280996427276 105.90570410470359
    vertex 33.85357213574158 59.69328099642818 108.80348158357077
    vertex 34.241800703399875 59.693280996428264 108.85459284410287
  endloop
endfacet
facet normal -1.733852304392103e-13 1.0 -3.098319270727756e-13
  outer loop
    vertex 33.853572135485486 59.693280996427276 105.90570410470359
    vertex 34.241800703399875 59.693280996428264 108.85459284410287
    vertex 34.24180070313475 59.69328099642733 105.85459284410288
  endloop
endfacet
facet normal -1.733852304392103e-13 1.0 -3.098319270727756e-13
  outer loop
    vertex 34.24180070313475 59.69328099642733 105.85459284410288
    vertex 34.241800703399875 59.693280996428264 108.85459284410287
    vertex 34.63002927104914 59.693280996428314 108.80348158350216
  endloop
endfacet
facet normal -1.733852304392103e-13 1.0 -3.098319270727756e-13
  outer loop
    vertex 34.24180070313475 59.69328099642733 105.85459284410288
    vertex 34.63002927104914 59.693280996428314 108.80348158350216
    vertex 34.630029270793045 59.69328099642741 105.90570410463496
  endloop
endfacet
facet normal -1.733852304392103e-13 1.0 -3.098319270727756e-13
  outer loop
    vertex 34.630029270793045 59.69328099642741 105.90570410463496
    vertex 34.63002927104914 59.693280996428314 108.80348158350216
    vertex 34.991800703382125 59.693280996428335 108.65363094971325
  endloop
endfacet
facet normal -1.733852304392103e-13 1.0 -3.098319270727756e-13
  outer loop
    vertex 34.630029270793045 59.69328099642741 105.90570410463496
    vertex 34.991800703382125 59.693280996428335 108.65363094971325
    vertex 34.99180070315249 59.69328099642753 106.05555473835993
  endloop
endfacet
facet normal -1.733852304392103e-13 1.0 -3.098319270727756e-13
  outer loop
    vertex 34.99180070315249 59.69328099642753 106.05555473835993
    vertex 34.991800703382125 59.693280996428335 108.65363094971325
    vertex 35.3024608749534 59.693280996427646 106.29393267222932
  endloop
endfacet
facet normal -1.733852304392103e-13 1.0 -3.098319270727756e-13
  outer loop
    vertex 35.3024608749534 59.693280996427646 106.29393267222932
    vertex 34.991800703382125 59.693280996428335 108.65363094971325
    vertex 35.302460875140866 59.693280996428314 108.41525301578895
  endloop
endfacet
facet normal -1.733852304392103e-13 1.0 -3.098319270727756e-13
  outer loop
    vertex 35.3024608749534 59.693280996427646 106.29393267222932
    vertex 35.302460875140866 59.693280996428314 108.41525301578895
    vertex 35.54083880901024 59.69328099642826 108.10459284398806
  endloop
endfacet
facet normal -1.733852304392103e-13 1.0 -3.098319270727756e-13
  outer loop
    vertex 35.3024608749534 59.693280996427646 106.29393267222932
    vertex 35.54083880901024 59.69328099642826 108.10459284398806
    vertex 35.54083880887768 59.69328099642778 106.60459284398806
  endloop
endfacet
facet normal -1.733852304392103e-13 1.0 -3.098319270727756e-13
  outer loop
    vertex 35.54083880887768 59.69328099642778 106.60459284398806
    vertex 35.54083880901024 59.69328099642826 108.10459284398806
    vertex 35.69068944273523 59.693280996428165 107.74282141162861
  endloop
endfacet
facet normal -1.733852304392103e-13 1.0 -3.098319270727756e-13
  outer loop
    vertex 35.54083880887768 59.69328099642778 106.60459284398806
    vertex 35.69068944273523 59.693280996428165 107.74282141162861
    vertex 35.6906894426666 59.69328099642793 106.96636427632104
  endloop
endfacet
facet normal -1.733852304392103e-13 1.0 -3.098319270727756e-13
  outer loop
    vertex 35.6906894426666 59.69328099642793 106.96636427632104
    vertex 35.69068944273523 59.693280996428165 107.74282141162861
    vertex 35.74180070326731 59.69328099642805 107.35459284397032
  endloop
endfacet
facet normal 0.25881904501716074 -2.5439926041323504e-13 -0.9659258263119406
  outer loop
    vertex 33.85357213574088 63.69328099642818 108.80348158356955
    vertex 34.241800703399875 59.693280996428264 108.85459284410287
    vertex 33.85357213574158 59.69328099642818 108.80348158357077
  endloop
endfacet
facet normal -8.83825306266811e-11 -3.098319270880999e-13 -1.0
  outer loop
    vertex 34.241800703399875 59.693280996428264 108.85459284410287
    vertex 33.85357213574088 63.69328099642818 108.80348158356955
    vertex 34.24180070339918 63.69328099642827 108.85459284410163
  endloop
endfacet
facet normal -0.9659258263119401 -2.4766767546308323e-13 -0.2588190450171624
  outer loop
    vertex 35.690689442734524 63.69328099642817 107.74282141162736
    vertex 35.54083880901024 59.69328099642826 108.10459284398806
    vertex 35.54083880900954 63.69328099642826 108.10459284398682
  endloop
endfacet
facet normal -0.8660254038286267 -3.050719777217112e-13 -0.4999999999234644
  outer loop
    vertex 35.54083880901024 59.69328099642826 108.10459284398806
    vertex 35.690689442734524 63.69328099642817 107.74282141162736
    vertex 35.69068944273523 59.693280996428165 107.74282141162861
  endloop
endfacet
facet normal -0.8660254038286265 -3.050719777217112e-13 -0.49999999992346433
  outer loop
    vertex 35.54083880900954 63.69328099642826 108.10459284398682
    vertex 35.302460875140866 59.693280996428314 108.41525301578895
    vertex 35.30246087514018 63.693280996428314 108.4152530157877
  endloop
endfacet
facet normal -0.7071067812490498 -3.416861288538852e-13 -0.7071067811240453
  outer loop
    vertex 35.302460875140866 59.693280996428314 108.41525301578895
    vertex 35.54083880900954 63.69328099642826 108.10459284398682
    vertex 35.54083880901024 59.69328099642826 108.10459284398806
  endloop
endfacet
facet normal -0.7071067811240563 9.64823844902945e-14 0.7071067812490387
  outer loop
    vertex 35.3024608749534 59.693280996427646 106.29393267222932
    vertex 34.9918007031518 63.69328099642754 106.05555473835868
    vertex 34.99180070315249 59.69328099642753 106.05555473835993
  endloop
endfacet
facet normal -0.49999999992346156 1.8162970455586816e-13 0.8660254038286282
  outer loop
    vertex 34.9918007031518 63.69328099642754 106.05555473835868
    vertex 35.3024608749534 59.693280996427646 106.29393267222932
    vertex 35.3024608749527 63.69328099642765 106.29393267222808
  endloop
endfacet
facet normal -0.8660254037402505 4.759949366387621e-15 0.5000000000765361
  outer loop
    vertex 35.540838808876984 63.69328099642779 106.60459284398682
    vertex 35.6906894426666 59.69328099642793 106.96636427632104
    vertex 35.690689442665914 63.69328099642793 106.96636427631981
  endloop
endfacet
facet normal -0.9659258262661934 -8.728686844064834e-14 0.25881904518789145
  outer loop
    vertex 35.6906894426666 59.69328099642793 106.96636427632104
    vertex 35.540838808876984 63.69328099642779 106.60459284398682
    vertex 35.54083880887768 59.69328099642778 106.60459284398806
  endloop
endfacet
facet normal 0.25881904518787874 3.4415005995337564e-13 0.9659258262661968
  outer loop
    vertex 33.853572135485486 59.693280996427276 105.90570410470359
    vertex 33.4918007031518 63.69328099642727 106.05555473849127
    vertex 33.4918007031525 59.69328099642726 106.05555473849249
  endloop
endfacet
facet normal 0.5000000000765311 3.550149349676957e-13 0.8660254037402534
  outer loop
    vertex 33.4918007031518 63.69328099642727 106.05555473849127
    vertex 33.853572135485486 59.693280996427276 105.90570410470359
    vertex 33.8535721354848 63.693280996427276 105.90570410470235
  endloop
endfacet
facet normal 0.9659258262661938 8.728686844064893e-14 -0.2588190451878897
  outer loop
    vertex 32.79291196386802 59.69328099642766 107.7428214118847
    vertex 32.74180070326662 63.69328099642754 107.35459284423419
    vertex 32.79291196386732 63.69328099642766 107.74282141188347
  endloop
endfacet
facet normal 1.0 1.7338523041182896e-13 -8.837489380550064e-11
  outer loop
    vertex 32.74180070326662 63.69328099642754 107.35459284423419
    vertex 32.79291196386802 59.69328099642766 107.7428214118847
    vertex 32.74180070326731 59.69328099642753 107.35459284423544
  endloop
endfacet
facet normal -1.0 3.8460374712187675e-13 9.096361601882252e-11
  outer loop
    vertex 36.205902318185345 -8.306719003494884 104.36421178722448
    vertex 36.20590231828369 -12.306719003564925 105.46228799852443
    vertex 36.20590231828523 -8.306719003491809 105.4622879985225
  endloop
endfacet
facet normal -1.0 1.1681137448704376e-13 9.022901706765184e-11
  outer loop
    vertex 36.205902318195164 63.6932809964294 104.36421178718967
    vertex 36.20590231828523 -8.306719003491809 105.4622879985225
    vertex 36.20590231829082 63.693280996427866 105.46228799848772
  endloop
endfacet
facet normal -1.0 1.1681137448704376e-13 9.022901706765184e-11
  outer loop
    vertex 36.20590231828523 -8.306719003491809 105.4622879985225
    vertex 36.205902318195164 63.6932809964294 104.36421178718967
    vertex 36.205902318185345 -8.306719003494884 104.36421178722448
  endloop
endfacet
facet normal -1.0 1.1681137448704376e-13 9.022901706765184e-11
  outer loop
    vertex 36.205902318185345 -8.306719003494884 104.36421178722448
    vertex 36.205902318195164 63.6932809964294 104.36421178718967
    vertex 36.20590231801263 -8.306719003493715 102.46228799862979
  endloop
endfacet
facet normal -1.0 1.1681137448704376e-13 9.022901706765184e-11
  outer loop
    vertex 36.20590231801263 -8.306719003493715 102.46228799862979
    vertex 36.205902318195164 63.6932809964294 104.36421178718967
    vertex 36.20590231802246 63.69328099642641 102.462287998595
  endloop
endfacet
facet normal -0.2532538963314696 0.25326765821581826 -0.9336583729045678
  outer loop
    vertex 36.20590231802246 63.69328099642641 102.462287998595
    vertex 40.205902318035996 67.69328099649526 102.46228799813282
    vertex 40.205902317936555 63.69328099642413 101.36421178683672
  endloop
endfacet
facet normal -0.2532538963314696 0.25326765821581826 -0.9336583729045678
  outer loop
    vertex 40.205902318035996 67.69328099649526 102.46228799813282
    vertex 36.20590231802246 63.69328099642641 102.462287998595
    vertex 36.20590231811863 67.65738261156433 103.52446582495811
  endloop
endfacet
facet normal -9.36914063228827e-14 1.0 -2.752240571443705e-13
  outer loop
    vertex 32.8043981531205 63.69328099642843 109.11976920329552
    vertex 32.74180070326662 63.69328099642754 107.35459284423419
    vertex 32.5642706045388 63.69328099642837 108.77512481372897
  endloop
endfacet
facet normal -9.36914063228827e-14 1.0 -2.752240571443705e-13
  outer loop
    vertex 32.74180070326662 63.69328099642754 107.35459284423419
    vertex 32.8043981531205 63.69328099642843 109.11976920329552
    vertex 32.79291196386732 63.69328099642766 107.74282141188347
  endloop
endfacet
facet normal -9.36914063228827e-14 1.0 -2.752240571443705e-13
  outer loop
    vertex 32.79291196386732 63.69328099642766 107.74282141188347
    vertex 32.8043981531205 63.69328099642843 109.11976920329552
    vertex 32.94276259765625 63.69328099642781 108.10459284421643
  endloop
endfacet
facet normal -9.36914063228827e-14 1.0 -2.752240571443705e-13
  outer loop
    vertex 32.94276259765625 63.69328099642781 108.10459284421643
    vertex 32.8043981531205 63.69328099642843 109.11976920329552
    vertex 33.08664919997376 63.69328099642852 109.43085655661898
  endloop
endfacet
facet normal -9.36914063228827e-14 1.0 -2.752240571443705e-13
  outer loop
    vertex 32.94276259765625 63.69328099642781 108.10459284421643
    vertex 33.08664919997376 63.69328099642852 109.43085655661898
    vertex 33.181140531580525 63.69328099642796 108.41525301597517
  endloop
endfacet
facet normal -9.36914063228827e-14 1.0 -2.752240571443705e-13
  outer loop
    vertex 33.181140531580525 63.69328099642796 108.41525301597517
    vertex 33.08664919997376 63.69328099642852 109.43085655661898
    vertex 33.40638389968602 63.69328099642864 109.70327299637161
  endloop
endfacet
facet normal -9.36914063228827e-14 1.0 -2.752240571443705e-13
  outer loop
    vertex 33.181140531580525 63.69328099642796 108.41525301597517
    vertex 33.40638389968602 63.69328099642864 109.70327299637161
    vertex 33.49180070338143 63.693280996428065 108.65363094984457
  endloop
endfacet
facet normal -9.36914063228827e-14 1.0 -2.752240571443705e-13
  outer loop
    vertex 33.49180070338143 63.693280996428065 108.65363094984457
    vertex 33.40638389968602 63.69328099642864 109.70327299637161
    vertex 33.758346223639265 63.69328099642881 109.93254034547522
  endloop
endfacet
facet normal -9.36914063228827e-14 1.0 -2.752240571443705e-13
  outer loop
    vertex 33.49180070338143 63.693280996428065 108.65363094984457
    vertex 33.758346223639265 63.69328099642881 109.93254034547522
    vertex 33.85357213574088 63.69328099642818 108.80348158356955
  endloop
endfacet
facet normal -9.36914063228827e-14 1.0 -2.752240571443705e-13
  outer loop
    vertex 33.85357213574088 63.69328099642818 108.80348158356955
    vertex 33.758346223639265 63.69328099642881 109.93254034547522
    vertex 34.13675036238334 63.693280996428996 110.11488974259217
  endloop
endfacet
facet normal -9.36914063228827e-14 1.0 -2.752240571443705e-13
  outer loop
    vertex 33.85357213574088 63.69328099642818 108.80348158356955
    vertex 34.13675036238334 63.693280996428996 110.11488974259217
    vertex 34.24180070339918 63.69328099642827 108.85459284410163
  endloop
endfacet
facet normal -9.36914063228827e-14 1.0 -2.752240571443705e-13
  outer loop
    vertex 34.24180070339918 63.69328099642827 108.85459284410163
    vertex 34.13675036238334 63.693280996428996 110.11488974259217
    vertex 34.53537583692684 63.693280996429195 110.24732359737466
  endloop
endfacet
facet normal -9.36914063228827e-14 1.0 -2.752240571443705e-13
  outer loop
    vertex 34.24180070339918 63.69328099642827 108.85459284410163
    vertex 34.53537583692684 63.693280996429195 110.24732359737466
    vertex 34.630029271048436 63.693280996428314 108.80348158350093
  endloop
endfacet
facet normal -9.36914063228827e-14 1.0 -2.752240571443705e-13
  outer loop
    vertex 34.630029271048436 63.693280996428314 108.80348158350093
    vertex 34.53537583692684 63.693280996429195 110.24732359737466
    vertex 34.947669755438035 63.69328099642944 110.32766486700766
  endloop
endfacet
facet normal -9.36914063228827e-14 1.0 -2.752240571443705e-13
  outer loop
    vertex 34.630029271048436 63.693280996428314 108.80348158350093
    vertex 34.947669755438035 63.69328099642944 110.32766486700766
    vertex 34.99180070338143 63.693280996428335 108.65363094971201
  endloop
endfacet
facet normal -9.36914063228827e-14 1.0 -2.752240571443705e-13
  outer loop
    vertex 34.99180070338143 63.693280996428335 108.65363094971201
    vertex 34.947669755438035 63.69328099642944 110.32766486700766
    vertex 35.36685453438707 63.693280996429706 110.35459284400221
  endloop
endfacet
facet normal -9.36914063228827e-14 1.0 -2.752240571443705e-13
  outer loop
    vertex 34.99180070338143 63.693280996428335 108.65363094971201
    vertex 35.36685453438707 63.693280996429706 110.35459284400221
    vertex 35.30246087514018 63.693280996428314 108.4152530157877
  endloop
endfacet
facet normal -9.36914063228827e-14 1.0 -2.752240571443705e-13
  outer loop
    vertex 35.30246087514018 63.693280996428314 108.4152530157877
    vertex 35.36685453438707 63.693280996429706 110.35459284400221
    vertex 35.54083880900954 63.69328099642826 108.10459284398682
  endloop
endfacet
facet normal -9.36914063228827e-14 1.0 -2.752240571443705e-13
  outer loop
    vertex 35.54083880900954 63.69328099642826 108.10459284398682
    vertex 35.36685453438707 63.693280996429706 110.35459284400221
    vertex 36.20590231871994 63.693280996430225 110.35459284392806
  endloop
endfacet
facet normal -9.36914063228827e-14 1.0 -2.752240571443705e-13
  outer loop
    vertex 35.54083880900954 63.69328099642826 108.10459284398682
    vertex 36.20590231871994 63.693280996430225 110.35459284392806
    vertex 35.690689442734524 63.69328099642817 107.74282141162736
  endloop
endfacet
facet normal -9.36914063228827e-14 1.0 -2.752240571443705e-13
  outer loop
    vertex 35.690689442734524 63.69328099642817 107.74282141162736
    vertex 36.20590231871994 63.693280996430225 110.35459284392806
    vertex 35.74180070326661 63.69328099642806 107.35459284396907
  endloop
endfacet
facet normal -9.36914063228827e-14 1.0 -2.752240571443705e-13
  outer loop
    vertex 32.13226366750412 63.69328099642843 107.5986963810734
    vertex 32.44757206908506 63.69328099642968 105.85459284425897
    vertex 32.092281650420276 63.69328099642853 107.18055473861538
  endloop
endfacet
facet normal -9.36914063228827e-14 1.0 -2.752240571443705e-13
  outer loop
    vertex 32.44757206908506 63.69328099642968 105.85459284425897
    vertex 32.13226366750412 63.69328099642843 107.5986963810734
    vertex 32.22541821224138 63.69328099642837 108.00828547472989
  endloop
endfacet
facet normal -9.36914063228827e-14 1.0 -2.752240571443705e-13
  outer loop
    vertex 32.44757206908506 63.69328099642968 105.85459284425897
    vertex 32.22541821224138 63.69328099642837 108.00828547472989
    vertex 32.3702139433248 63.69328099642835 108.40258889990851
  endloop
endfacet
facet normal -9.36914063228827e-14 1.0 -2.752240571443705e-13
  outer loop
    vertex 32.44757206908506 63.69328099642968 105.85459284425897
    vertex 32.3702139433248 63.69328099642835 108.40258889990851
    vertex 32.5642706045388 63.69328099642837 108.77512481372897
  endloop
endfacet
facet normal -9.36914063228827e-14 1.0 -2.752240571443705e-13
  outer loop
    vertex 32.44757206908506 63.69328099642968 105.85459284425897
    vertex 32.5642706045388 63.69328099642837 108.77512481372897
    vertex 32.74180070326662 63.69328099642754 107.35459284423419
  endloop
endfacet
facet normal -9.36914063228827e-14 1.0 -2.752240571443705e-13
  outer loop
    vertex 32.44757206908506 63.69328099642968 105.85459284425897
    vertex 32.74180070326662 63.69328099642754 107.35459284423419
    vertex 32.79291196379871 63.693280996427426 106.9663642765759
  endloop
endfacet
facet normal -9.36914063228827e-14 1.0 -2.752240571443705e-13
  outer loop
    vertex 32.44757206908506 63.69328099642968 105.85459284425897
    vertex 32.79291196379871 63.693280996427426 106.9663642765759
    vertex 32.94276259752368 63.69328099642733 106.60459284421643
  endloop
endfacet
facet normal -9.36914063228827e-14 1.0 -2.752240571443705e-13
  outer loop
    vertex 32.44757206908506 63.69328099642968 105.85459284425897
    vertex 32.94276259752368 63.69328099642733 106.60459284421643
    vertex 35.70590231804779 63.693280996426395 102.59626259484642
  endloop
endfacet
facet normal -9.36914063228827e-14 1.0 -2.752240571443705e-13
  outer loop
    vertex 35.70590231804779 63.693280996426395 102.59626259484642
    vertex 32.94276259752368 63.69328099642733 106.60459284421643
    vertex 33.181140531393055 63.69328099642729 106.29393267241555
  endloop
endfacet
facet normal -9.36914063228827e-14 1.0 -2.752240571443705e-13
  outer loop
    vertex 35.70590231804779 63.693280996426395 102.59626259484642
    vertex 33.181140531393055 63.69328099642729 106.29393267241555
    vertex 33.4918007031518 63.69328099642727 106.05555473849127
  endloop
endfacet
facet normal -9.36914063228827e-14 1.0 -2.752240571443705e-13
  outer loop
    vertex 35.70590231804779 63.693280996426395 102.59626259484642
    vertex 33.4918007031518 63.69328099642727 106.05555473849127
    vertex 33.8535721354848 63.693280996427276 105.90570410470235
  endloop
endfacet
facet normal -9.36914063228827e-14 1.0 -2.752240571443705e-13
  outer loop
    vertex 35.70590231804779 63.693280996426395 102.59626259484642
    vertex 33.8535721354848 63.693280996427276 105.90570410470235
    vertex 34.241800703134054 63.69328099642733 105.85459284410165
  endloop
endfacet
facet normal -9.36914063228827e-14 1.0 -2.752240571443705e-13
  outer loop
    vertex 35.70590231804779 63.693280996426395 102.59626259484642
    vertex 34.241800703134054 63.69328099642733 105.85459284410165
    vertex 34.63002927079235 63.69328099642741 105.90570410463373
  endloop
endfacet
facet normal -9.36914063228827e-14 1.0 -2.752240571443705e-13
  outer loop
    vertex 35.70590231804779 63.693280996426395 102.59626259484642
    vertex 34.63002927079235 63.69328099642741 105.90570410463373
    vertex 34.9918007031518 63.69328099642754 106.05555473835868
  endloop
endfacet
facet normal -9.36914063228827e-14 1.0 -2.752240571443705e-13
  outer loop
    vertex 35.70590231804779 63.693280996426395 102.59626259484642
    vertex 34.9918007031518 63.69328099642754 106.05555473835868
    vertex 35.3024608749527 63.69328099642765 106.29393267222808
  endloop
endfacet
facet normal -9.36914063228827e-14 1.0 -2.752240571443705e-13
  outer loop
    vertex 35.70590231804779 63.693280996426395 102.59626259484642
    vertex 35.3024608749527 63.69328099642765 106.29393267222808
    vertex 35.540838808876984 63.69328099642779 106.60459284398682
  endloop
endfacet
facet normal -9.36914063228827e-14 1.0 -2.752240571443705e-13
  outer loop
    vertex 35.70590231804779 63.693280996426395 102.59626259484642
    vertex 35.540838808876984 63.69328099642779 106.60459284398682
    vertex 35.690689442665914 63.69328099642793 106.96636427631981
  endloop
endfacet
facet normal -9.36914063228827e-14 1.0 -2.752240571443705e-13
  outer loop
    vertex 35.70590231804779 63.693280996426395 102.59626259484642
    vertex 35.690689442665914 63.69328099642793 106.96636427631981
    vertex 35.74180070326661 63.69328099642806 107.35459284396907
  endloop
endfacet
facet normal -9.36914063228827e-14 1.0 -2.752240571443705e-13
  outer loop
    vertex 35.70590231804779 63.693280996426395 102.59626259484642
    vertex 35.74180070326661 63.69328099642806 107.35459284396907
    vertex 36.20590231802246 63.69328099642641 102.462287998595
  endloop
endfacet
facet normal -9.36914063228827e-14 1.0 -2.752240571443705e-13
  outer loop
    vertex 36.20590231802246 63.69328099642641 102.462287998595
    vertex 35.74180070326661 63.69328099642806 107.35459284396907
    vertex 36.20590231871994 63.693280996430225 110.35459284392806
  endloop
endfacet
facet normal -9.36914063228827e-14 1.0 -2.752240571443705e-13
  outer loop
    vertex 36.20590231802246 63.69328099642641 102.462287998595
    vertex 36.20590231871994 63.693280996430225 110.35459284392806
    vertex 36.20590231829082 63.693280996427866 105.46228799848772
  endloop
endfacet
facet normal -9.36914063228827e-14 1.0 -2.752240571443705e-13
  outer loop
    vertex 36.20590231802246 63.69328099642641 102.462287998595
    vertex 36.20590231829082 63.693280996427866 105.46228799848772
    vertex 36.205902318195164 63.6932809964294 104.36421178718967
  endloop
endfacet
facet normal 1.0383752879081347e-13 -1.0 4.036974170644994e-13
  outer loop
    vertex 32.447572069075235 -8.30671900349142 105.85459284429334
    vertex 32.13226366755586 -8.306719003490887 107.59869638104759
    vertex 32.09228165046624 -8.306719003491056 107.18055473859458
  endloop
endfacet
facet normal 1.0383752879081347e-13 -1.0 4.036974170644994e-13
  outer loop
    vertex 32.13226366755586 -8.306719003490887 107.59869638104759
    vertex 32.447572069075235 -8.30671900349142 105.85459284429334
    vertex 32.22541821229312 -8.306719003490926 108.00828547470408
  endloop
endfacet
facet normal 1.0383752879081347e-13 -1.0 4.036974170644994e-13
  outer loop
    vertex 32.22541821229312 -8.306719003490926 108.00828547470408
    vertex 32.447572069075235 -8.30671900349142 105.85459284429334
    vertex 32.37021394337654 -8.30671900349096 108.4025888998827
  endloop
endfacet
facet normal 1.0383752879081347e-13 -1.0 4.036974170644994e-13
  outer loop
    vertex 32.37021394337654 -8.30671900349096 108.4025888998827
    vertex 32.447572069075235 -8.30671900349142 105.85459284429334
    vertex 32.56427060459054 -8.30671900349094 108.77512481370316
  endloop
endfacet
facet normal 1.0383752879081347e-13 -1.0 4.036974170644994e-13
  outer loop
    vertex 32.56427060459054 -8.30671900349094 108.77512481370316
    vertex 32.447572069075235 -8.30671900349142 105.85459284429334
    vertex 32.741800703279125 -8.30671900349268 107.35459284425652
  endloop
endfacet
facet normal 1.0383752879081347e-13 -1.0 4.036974170644994e-13
  outer loop
    vertex 32.741800703279125 -8.30671900349268 107.35459284425652
    vertex 32.447572069075235 -8.30671900349142 105.85459284429334
    vertex 32.792911963811214 -8.306719003492795 106.9663642765982
  endloop
endfacet
facet normal 1.0383752879081347e-13 -1.0 4.036974170644994e-13
  outer loop
    vertex 32.792911963811214 -8.306719003492795 106.9663642765982
    vertex 32.447572069075235 -8.30671900349142 105.85459284429334
    vertex 32.942762597536195 -8.306719003492839 106.60459284423874
  endloop
endfacet
facet normal 1.0383752879081347e-13 -1.0 4.036974170644994e-13
  outer loop
    vertex 32.942762597536195 -8.306719003492839 106.60459284423874
    vertex 32.447572069075235 -8.30671900349142 105.85459284429334
    vertex 35.705902318060275 -8.306719003492528 102.59626259486885
  endloop
endfacet
facet normal 1.0383752879081347e-13 -1.0 4.036974170644994e-13
  outer loop
    vertex 32.942762597536195 -8.306719003492839 106.60459284423874
    vertex 35.705902318060275 -8.306719003492528 102.59626259486885
    vertex 33.18114053140557 -8.306719003492807 106.29393267243786
  endloop
endfacet
facet normal 1.0383752879081347e-13 -1.0 4.036974170644994e-13
  outer loop
    vertex 33.18114053140557 -8.306719003492807 106.29393267243786
    vertex 35.705902318060275 -8.306719003492528 102.59626259486885
    vertex 33.49180070316434 -8.306719003492702 106.05555473851355
  endloop
endfacet
facet normal 1.0383752879081347e-13 -1.0 4.036974170644994e-13
  outer loop
    vertex 33.49180070316434 -8.306719003492702 106.05555473851355
    vertex 35.705902318060275 -8.306719003492528 102.59626259486885
    vertex 33.8535721354973 -8.306719003492534 105.90570410472463
  endloop
endfacet
facet normal 1.0383752879081347e-13 -1.0 4.036974170644994e-13
  outer loop
    vertex 33.8535721354973 -8.306719003492534 105.90570410472463
    vertex 35.705902318060275 -8.306719003492528 102.59626259486885
    vertex 34.241800703146566 -8.306719003492312 105.85459284412393
  endloop
endfacet
facet normal 1.0383752879081347e-13 -1.0 4.036974170644994e-13
  outer loop
    vertex 34.241800703146566 -8.306719003492312 105.85459284412393
    vertex 35.705902318060275 -8.306719003492528 102.59626259486885
    vertex 34.63002927080486 -8.306719003492049 105.90570410465604
  endloop
endfacet
facet normal 1.0383752879081347e-13 -1.0 4.036974170644994e-13
  outer loop
    vertex 34.63002927080486 -8.306719003492049 105.90570410465604
    vertex 35.705902318060275 -8.306719003492528 102.59626259486885
    vertex 34.99180070316434 -8.306719003491766 106.05555473838099
  endloop
endfacet
facet normal 1.0383752879081347e-13 -1.0 4.036974170644994e-13
  outer loop
    vertex 34.99180070316434 -8.306719003491766 106.05555473838099
    vertex 35.705902318060275 -8.306719003492528 102.59626259486885
    vertex 35.30246087496521 -8.306719003491482 106.29393267225039
  endloop
endfacet
facet normal 1.0383752879081347e-13 -1.0 4.036974170644994e-13
  outer loop
    vertex 35.30246087496521 -8.306719003491482 106.29393267225039
    vertex 35.705902318060275 -8.306719003492528 102.59626259486885
    vertex 35.5408388088895 -8.306719003491217 106.60459284400913
  endloop
endfacet
facet normal 1.0383752879081347e-13 -1.0 4.036974170644994e-13
  outer loop
    vertex 35.5408388088895 -8.306719003491217 106.60459284400913
    vertex 35.705902318060275 -8.306719003492528 102.59626259486885
    vertex 35.69068944267842 -8.306719003490986 106.96636427634212
  endloop
endfacet
facet normal 1.0383752879081347e-13 -1.0 4.036974170644994e-13
  outer loop
    vertex 35.69068944267842 -8.306719003490986 106.96636427634212
    vertex 35.705902318060275 -8.306719003492528 102.59626259486885
    vertex 35.741800703279125 -8.306719003490809 107.35459284399137
  endloop
endfacet
facet normal 1.0383752879081347e-13 -1.0 4.036974170644994e-13
  outer loop
    vertex 35.741800703279125 -8.306719003490809 107.35459284399137
    vertex 35.705902318060275 -8.306719003492528 102.59626259486885
    vertex 36.20590231801263 -8.306719003493715 102.46228799862979
  endloop
endfacet
facet normal 1.0383752879081347e-13 -1.0 4.036974170644994e-13
  outer loop
    vertex 32.741800703279125 -8.30671900349268 107.35459284425652
    vertex 32.804398153172244 -8.306719003490874 109.11976920326971
    vertex 32.56427060459054 -8.30671900349094 108.77512481370316
  endloop
endfacet
facet normal 1.0383752879081347e-13 -1.0 4.036974170644994e-13
  outer loop
    vertex 32.804398153172244 -8.306719003490874 109.11976920326971
    vertex 32.741800703279125 -8.30671900349268 107.35459284425652
    vertex 32.79291196387984 -8.3067190034925 107.74282141190575
  endloop
endfacet
facet normal 1.0383752879081347e-13 -1.0 4.036974170644994e-13
  outer loop
    vertex 32.804398153172244 -8.306719003490874 109.11976920326971
    vertex 32.79291196387984 -8.3067190034925 107.74282141190575
    vertex 32.942762597668754 -8.306719003492269 108.10459284423874
  endloop
endfacet
facet normal 1.0383752879081347e-13 -1.0 4.036974170644994e-13
  outer loop
    vertex 32.804398153172244 -8.306719003490874 109.11976920326971
    vertex 32.942762597668754 -8.306719003492269 108.10459284423874
    vertex 33.086649200025505 -8.306719003490786 109.43085655659317
  endloop
endfacet
facet normal 1.0383752879081347e-13 -1.0 4.036974170644994e-13
  outer loop
    vertex 33.086649200025505 -8.306719003490786 109.43085655659317
    vertex 32.942762597668754 -8.306719003492269 108.10459284423874
    vertex 33.18114053159304 -8.306719003492004 108.41525301599748
  endloop
endfacet
facet normal 1.0383752879081347e-13 -1.0 4.036974170644994e-13
  outer loop
    vertex 33.086649200025505 -8.306719003490786 109.43085655659317
    vertex 33.18114053159304 -8.306719003492004 108.41525301599748
    vertex 33.40638389973776 -8.306719003490675 109.7032729963458
  endloop
endfacet
facet normal 1.0383752879081347e-13 -1.0 4.036974170644994e-13
  outer loop
    vertex 33.40638389973776 -8.306719003490675 109.7032729963458
    vertex 33.18114053159304 -8.306719003492004 108.41525301599748
    vertex 33.49180070339392 -8.306719003491718 108.65363094986688
  endloop
endfacet
facet normal 1.0383752879081347e-13 -1.0 4.036974170644994e-13
  outer loop
    vertex 33.40638389973776 -8.306719003490675 109.7032729963458
    vertex 33.49180070339392 -8.306719003491718 108.65363094986688
    vertex 33.758346223691 -8.3067190034905 109.93254034544941
  endloop
endfacet
facet normal 1.0383752879081347e-13 -1.0 4.036974170644994e-13
  outer loop
    vertex 33.758346223691 -8.3067190034905 109.93254034544941
    vertex 33.49180070339392 -8.306719003491718 108.65363094986688
    vertex 33.853572135753396 -8.306719003491438 108.80348158359185
  endloop
endfacet
facet normal 1.0383752879081347e-13 -1.0 4.036974170644994e-13
  outer loop
    vertex 33.758346223691 -8.3067190034905 109.93254034544941
    vertex 33.853572135753396 -8.306719003491438 108.80348158359185
    vertex 34.13675036243508 -8.306719003490327 110.11488974256636
  endloop
endfacet
facet normal 1.0383752879081347e-13 -1.0 4.036974170644994e-13
  outer loop
    vertex 34.13675036243508 -8.306719003490327 110.11488974256636
    vertex 33.853572135753396 -8.306719003491438 108.80348158359185
    vertex 34.24180070341169 -8.306719003491175 108.85459284412393
  endloop
endfacet
facet normal 1.0383752879081347e-13 -1.0 4.036974170644994e-13
  outer loop
    vertex 34.13675036243508 -8.306719003490327 110.11488974256636
    vertex 34.24180070341169 -8.306719003491175 108.85459284412393
    vertex 34.535375836978574 -8.306719003490114 110.24732359734885
  endloop
endfacet
facet normal 1.0383752879081347e-13 -1.0 4.036974170644994e-13
  outer loop
    vertex 34.535375836978574 -8.306719003490114 110.24732359734885
    vertex 34.24180070341169 -8.306719003491175 108.85459284412393
    vertex 34.630029271060955 -8.306719003490953 108.80348158352324
  endloop
endfacet
facet normal 1.0383752879081347e-13 -1.0 4.036974170644994e-13
  outer loop
    vertex 34.535375836978574 -8.306719003490114 110.24732359734885
    vertex 34.630029271060955 -8.306719003490953 108.80348158352324
    vertex 34.94766975548977 -8.30671900348986 110.32766486698185
  endloop
endfacet
facet normal 1.0383752879081347e-13 -1.0 4.036974170644994e-13
  outer loop
    vertex 34.94766975548977 -8.30671900348986 110.32766486698185
    vertex 34.630029271060955 -8.306719003490953 108.80348158352324
    vertex 34.99180070339391 -8.306719003490784 108.65363094973432
  endloop
endfacet
facet normal 1.0383752879081347e-13 -1.0 4.036974170644994e-13
  outer loop
    vertex 34.94766975548977 -8.30671900348986 110.32766486698185
    vertex 34.99180070339391 -8.306719003490784 108.65363094973432
    vertex 35.366854534438815 -8.306719003489613 110.3545928439764
  endloop
endfacet
facet normal 1.0383752879081347e-13 -1.0 4.036974170644994e-13
  outer loop
    vertex 35.366854534438815 -8.306719003489613 110.3545928439764
    vertex 34.99180070339391 -8.306719003490784 108.65363094973432
    vertex 35.30246087515268 -8.306719003490679 108.41525301581001
  endloop
endfacet
facet normal 1.0383752879081347e-13 -1.0 4.036974170644994e-13
  outer loop
    vertex 35.366854534438815 -8.306719003489613 110.3545928439764
    vertex 35.30246087515268 -8.306719003490679 108.41525301581001
    vertex 35.540838809022056 -8.306719003490649 108.10459284400913
  endloop
endfacet
facet normal 1.0383752879081347e-13 -1.0 4.036974170644994e-13
  outer loop
    vertex 35.366854534438815 -8.306719003489613 110.3545928439764
    vertex 35.540838809022056 -8.306719003490649 108.10459284400913
    vertex 36.205902318732434 -8.306719003488702 110.35459284395048
  endloop
endfacet
facet normal 1.0383752879081347e-13 -1.0 4.036974170644994e-13
  outer loop
    vertex 36.205902318732434 -8.306719003488702 110.35459284395048
    vertex 35.540838809022056 -8.306719003490649 108.10459284400913
    vertex 35.69068944274704 -8.306719003490693 107.74282141164967
  endloop
endfacet
facet normal 1.0383752879081347e-13 -1.0 4.036974170644994e-13
  outer loop
    vertex 36.205902318732434 -8.306719003488702 110.35459284395048
    vertex 35.69068944274704 -8.306719003490693 107.74282141164967
    vertex 35.741800703279125 -8.306719003490809 107.35459284399137
  endloop
endfacet
facet normal 1.0383752879081347e-13 -1.0 4.036974170644994e-13
  outer loop
    vertex 36.205902318732434 -8.306719003488702 110.35459284395048
    vertex 35.741800703279125 -8.306719003490809 107.35459284399137
    vertex 36.20590231828523 -8.306719003491809 105.4622879985225
  endloop
endfacet
facet normal 1.0383752879081347e-13 -1.0 4.036974170644994e-13
  outer loop
    vertex 36.20590231828523 -8.306719003491809 105.4622879985225
    vertex 35.741800703279125 -8.306719003490809 107.35459284399137
    vertex 36.205902318185345 -8.306719003494884 104.36421178722448
  endloop
endfacet
facet normal 1.0383752879081347e-13 -1.0 4.036974170644994e-13
  outer loop
    vertex 36.205902318185345 -8.306719003494884 104.36421178722448
    vertex 35.741800703279125 -8.306719003490809 107.35459284399137
    vertex 36.20590231801263 -8.306719003493715 102.46228799862979
  endloop
endfacet
facet normal 8.823986566061635e-11 4.831057659199075e-13 1.0
  outer loop
    vertex 72.20590231811924 67.6932809964956 105.46228799530915
    vertex 40.20590231828795 -12.306719003565474 105.46228799817146
    vertex 72.20590231810833 -12.306719003569842 105.4622879953478
  endloop
endfacet
facet normal 8.823986566061635e-11 4.831057659199075e-13 1.0
  outer loop
    vertex 40.20590231828795 -12.306719003565474 105.46228799817146
    vertex 72.20590231811924 67.6932809964956 105.46228799530915
    vertex 36.20590231828369 -12.306719003564925 105.46228799852443
  endloop
endfacet
facet normal 8.823986566061635e-11 4.831057659199075e-13 1.0
  outer loop
    vertex 36.20590231828369 -12.306719003564925 105.46228799852443
    vertex 72.20590231811924 67.6932809964956 105.46228799530915
    vertex 36.20590231828523 -8.306719003491809 105.4622879985225
  endloop
endfacet
facet normal 8.823986566061635e-11 4.831057659199075e-13 1.0
  outer loop
    vertex 36.20590231828523 -8.306719003491809 105.4622879985225
    vertex 72.20590231811924 67.6932809964956 105.46228799530915
    vertex 36.20590231829082 63.693280996427866 105.46228799848772
  endloop
endfacet
facet normal 8.823986566061635e-11 4.831057659199075e-13 1.0
  outer loop
    vertex 36.20590231829082 63.693280996427866 105.46228799848772
    vertex 72.20590231811924 67.6932809964956 105.46228799530915
    vertex 36.205902318294605 67.69328099650052 105.46228799848579
  endloop
endfacet
facet normal 8.823986566061635e-11 4.831057659199075e-13 1.0
  outer loop
    vertex 36.205902318294605 67.69328099650052 105.46228799848579
    vertex 72.20590231811924 67.6932809964956 105.46228799530915
    vertex 40.20590231829886 67.69328099649998 105.46228799813282
  endloop
endfacet
facet normal -1.0 3.4352362203567206e-13 9.080931030121234e-11
  outer loop
    vertex 36.205902318185345 -8.306719003494884 104.36421178722448
    vertex 36.205902318107725 -12.270820618630616 103.52446582499674
    vertex 36.20590231828369 -12.306719003564925 105.46228799852443
  endloop
endfacet
facet normal -1.0 3.4352362203567206e-13 9.080931030121234e-11
  outer loop
    vertex 36.205902318107725 -12.270820618630616 103.52446582499674
    vertex 36.205902318185345 -8.306719003494884 104.36421178722448
    vertex 36.20590231801263 -8.306719003493715 102.46228799862979
  endloop
endfacet
facet normal -1.772032394129093e-12 -0.9998284541487665 -0.018521940354293755
  outer loop
    vertex 40.20590231828795 -12.306719003565474 105.46228799817146
    vertex 36.20590231828369 -12.306719003564925 105.46228799852443
    vertex 36.205902318107725 -12.270820618630616 103.52446582499674
  endloop
endfacet
facet normal 1.0 -1.3643513225544012e-13 -9.056433278643085e-11
  outer loop
    vertex 72.20590231793564 -12.306719003568679 103.56036420662286
    vertex 72.20590231811924 67.6932809964956 105.46228799530915
    vertex 72.20590231810833 -12.306719003569842 105.4622879953478
  endloop
endfacet
facet normal 1.0 -1.3643513225544012e-13 -9.056433278643085e-11
  outer loop
    vertex 72.20590231811924 67.6932809964956 105.46228799530915
    vertex 72.20590231793564 -12.306719003568679 103.56036420662286
    vertex 72.20590231794654 67.6932809964926 103.56036420658423
  endloop
endfacet
facet normal 1.0 -1.3643513225544012e-13 -9.056433278643085e-11
  outer loop
    vertex 72.20590231794654 67.6932809964926 103.56036420658423
    vertex 72.20590231793564 -12.306719003568679 103.56036420662286
    vertex 72.20590231783727 -8.30671900349863 102.46228799532292
  endloop
endfacet
facet normal 1.0 -1.3643513225544012e-13 -9.056433278643085e-11
  outer loop
    vertex 72.20590231794654 67.6932809964926 103.56036420658423
    vertex 72.20590231783727 -8.30671900349863 102.46228799532292
    vertex 72.2059023178471 63.69328099642149 102.46228799528811
  endloop
endfacet
facet normal 0.26472527564598636 -5.020977781493765e-13 -0.9643238711315596
  outer loop
    vertex 68.20590231810195 -8.306719003497413 101.3642117844008
    vertex 72.2059023178471 63.69328099642149 102.46228799528811
    vertex 72.20590231783727 -8.30671900349863 102.46228799532292
  endloop
endfacet
facet normal 0.26472527564598636 -5.020977781493765e-13 -0.9643238711315596
  outer loop
    vertex 72.2059023178471 63.69328099642149 102.46228799528811
    vertex 68.20590231810195 -8.306719003497413 101.3642117844008
    vertex 68.20590231811177 63.693280996420306 101.36421178436603
  endloop
endfacet
facet normal -1.0 -7.063022871143943e-14 9.080931030121253e-11
  outer loop
    vertex 36.20590231811863 67.65738261156433 103.52446582495811
    vertex 36.205902318195164 63.6932809964294 104.36421178718967
    vertex 36.205902318294605 67.69328099650052 105.46228799848579
  endloop
endfacet
facet normal -1.0 -7.063022871143943e-14 9.080931030121253e-11
  outer loop
    vertex 36.205902318195164 63.6932809964294 104.36421178718967
    vertex 36.20590231811863 67.65738261156433 103.52446582495811
    vertex 36.20590231802246 63.69328099642641 102.462287998595
  endloop
endfacet
facet normal -8.512768847670948e-11 -0.2647252757100949 -0.9643238711139605
  outer loop
    vertex 40.205902317926736 -8.306719003493594 101.36421178687154
    vertex 68.20590231820029 -12.306719003567459 102.46228799570078
    vertex 40.205902318025075 -12.306719003563638 102.46228799817146
  endloop
endfacet
facet normal -8.512768847670948e-11 -0.2647252757100949 -0.9643238711139605
  outer loop
    vertex 68.20590231820029 -12.306719003567459 102.46228799570078
    vertex 40.205902317926736 -8.306719003493594 101.36421178687154
    vertex 68.20590231810195 -8.306719003497413 101.3642117844008
  endloop
endfacet
facet normal -8.823961561432818e-11 -4.832171575273187e-13 -1.0
  outer loop
    vertex 40.205902317936555 63.69328099642413 101.36421178683672
    vertex 68.20590231810195 -8.306719003497413 101.3642117844008
    vertex 40.205902317926736 -8.306719003493594 101.36421178687154
  endloop
endfacet
facet normal -8.823961561432818e-11 -4.832171575273187e-13 -1.0
  outer loop
    vertex 68.20590231810195 -8.306719003497413 101.3642117844008
    vertex 40.205902317936555 63.69328099642413 101.36421178683672
    vertex 68.20590231811177 63.693280996420306 101.36421178436603
  endloop
endfacet
facet normal 0.25591008017245737 -0.2559100802328876 -0.9322124552382487
  outer loop
    vertex 68.20590231820029 -12.306719003567459 102.46228799570078
    vertex 72.20590231783727 -8.30671900349863 102.46228799532292
    vertex 72.20590231793564 -12.306719003568679 103.56036420662286
  endloop
endfacet
facet normal 0.25591008017245737 -0.2559100802328876 -0.9322124552382487
  outer loop
    vertex 72.20590231783727 -8.30671900349863 102.46228799532292
    vertex 68.20590231820029 -12.306719003567459 102.46228799570078
    vertex 68.20590231810195 -8.306719003497413 101.3642117844008
  endloop
endfacet
facet normal -1.4978632418330119e-12 0.9998284541487485 -0.01852194035526873
  outer loop
    vertex 40.20590231829886 67.69328099649998 105.46228799813282
    vertex 36.20590231811863 67.65738261156433 103.52446582495811
    vertex 36.205902318294605 67.69328099650052 105.46228799848579
  endloop
endfacet
facet normal -0.00897423483281051 0.9999597307437763 -7.908094727357025e-13
  outer loop
    vertex 40.205902318035996 67.69328099649526 102.46228799813282
    vertex 36.20590231811863 67.65738261156433 103.52446582495811
    vertex 40.20590231829886 67.69328099649998 105.46228799813282
  endloop
endfacet
facet normal -8.50554466979456e-11 0.264725275709163 -0.9643238711142162
  outer loop
    vertex 40.205902318035996 67.69328099649526 102.46228799813282
    vertex 68.20590231811177 63.693280996420306 101.36421178436603
    vertex 40.205902317936555 63.69328099642413 101.36421178683672
  endloop
endfacet
facet normal -8.50554466979456e-11 0.264725275709163 -0.9643238711142162
  outer loop
    vertex 68.20590231811177 63.693280996420306 101.36421178436603
    vertex 40.205902318035996 67.69328099649526 102.46228799813282
    vertex 68.20590231821122 67.69328099649142 102.46228799566211
  endloop
endfacet
facet normal 0.25591008017252725 0.2559100802319168 -0.9322124552384959
  outer loop
    vertex 68.20590231821122 67.69328099649142 102.46228799566211
    vertex 72.2059023178471 63.69328099642149 102.46228799528811
    vertex 68.20590231811177 63.693280996420306 101.36421178436603
  endloop
endfacet
facet normal 0.25591008017252725 0.2559100802319168 -0.9322124552384959
  outer loop
    vertex 72.2059023178471 63.69328099642149 102.46228799528811
    vertex 68.20590231821122 67.69328099649142 102.46228799566211
    vertex 72.20590231794654 67.6932809964926 103.56036420658423
  endloop
endfacet
facet normal 1.5440477526642444e-13 1.0 -1.2118479957261563e-12
  outer loop
    vertex 72.20590231811924 67.6932809964956 105.46228799530915
    vertex 40.205902318035996 67.69328099649526 102.46228799813282
    vertex 40.20590231829886 67.69328099649998 105.46228799813282
  endloop
endfacet
facet normal 1.5440477526642444e-13 1.0 -1.2118479957261563e-12
  outer loop
    vertex 40.205902318035996 67.69328099649526 102.46228799813282
    vertex 72.20590231811924 67.6932809964956 105.46228799530915
    vertex 68.20590231821122 67.69328099649142 102.46228799566211
  endloop
endfacet
facet normal 1.5440477526642444e-13 1.0 -1.2118479957261563e-12
  outer loop
    vertex 68.20590231821122 67.69328099649142 102.46228799566211
    vertex 72.20590231811924 67.6932809964956 105.46228799530915
    vertex 72.20590231794654 67.6932809964926 103.56036420658423
  endloop
endfacet
facet normal -1.0 9.485970436193734e-13 8.71011977767075e-11
  outer loop
    vertex 36.205902318195164 63.6932809964294 104.36421178718967
    vertex 36.20590231829082 63.693280996427866 105.46228799848772
    vertex 36.205902318294605 67.69328099650052 105.46228799848579
  endloop
endfacet
facet normal -0.06410678225713048 -4.037962124508226e-13 0.9979430447017691
  outer loop
    vertex 35.366854534438815 -8.306719003489613 110.3545928439764
    vertex 34.947669755438035 63.69328099642944 110.32766486700766
    vertex 34.94766975548977 -8.30671900348986 110.32766486698185
  endloop
endfacet
facet normal -0.12794983503110718 -4.4747943314056077e-13 0.9917806409259624
  outer loop
    vertex 34.947669755438035 63.69328099642944 110.32766486700766
    vertex 35.366854534438815 -8.306719003489613 110.3545928439764
    vertex 35.36685453438707 63.693280996429706 110.35459284400221
  endloop
endfacet
facet normal -0.12794983503110166 -4.47479433140557e-13 0.991780640925963
  outer loop
    vertex 34.94766975548977 -8.30671900348986 110.32766486698185
    vertex 34.53537583692684 63.693280996429195 110.24732359737466
    vertex 34.535375836978574 -8.306719003490114 110.24732359734885
  endloop
endfacet
facet normal -0.2537963388725285 -5.291253734242537e-13 0.9672576794085952
  outer loop
    vertex 34.53537583692684 63.693280996429195 110.24732359737466
    vertex 34.94766975548977 -8.30671900348986 110.32766486698185
    vertex 34.947669755438035 63.69328099642944 110.32766486700766
  endloop
endfacet
facet normal -0.2537963388725242 -5.291253734242511e-13 0.9672576794085964
  outer loop
    vertex 34.535375836978574 -8.306719003490114 110.24732359734885
    vertex 34.13675036238334 63.693280996428996 110.11488974259217
    vertex 34.13675036243508 -8.306719003490327 110.11488974256636
  endloop
endfacet
facet normal -0.37547075622646664 -6.020474764882875e-13 0.9268342415009954
  outer loop
    vertex 34.13675036238334 63.693280996428996 110.11488974259217
    vertex 34.535375836978574 -8.306719003490114 110.24732359734885
    vertex 34.53537583692684 63.693280996429195 110.24732359737466
  endloop
endfacet
facet normal -0.37547075622646153 -6.020474764882845e-13 0.9268342415009975
  outer loop
    vertex 34.13675036243508 -8.306719003490327 110.11488974256636
    vertex 33.758346223639265 63.69328099642881 109.93254034547522
    vertex 33.758346223691 -8.3067190034905 109.93254034544941
  endloop
endfacet
facet normal -0.490972915637467 -6.650726907609577e-13 0.8711748367064127
  outer loop
    vertex 33.758346223639265 63.69328099642881 109.93254034547522
    vertex 34.13675036243508 -8.306719003490327 110.11488974256636
    vertex 34.13675036238334 63.693280996428996 110.11488974259217
  endloop
endfacet
facet normal -0.4909729156374644 -6.650726907609562e-13 0.8711748367064143
  outer loop
    vertex 33.758346223691 -8.3067190034905 109.93254034544941
    vertex 33.40638389968602 63.69328099642864 109.70327299637161
    vertex 33.40638389973776 -8.306719003490675 109.7032729963458
  endloop
endfacet
facet normal -0.5984041096588435 -7.171649625071774e-13 0.8011944342938281
  outer loop
    vertex 33.40638389968602 63.69328099642864 109.70327299637161
    vertex 33.758346223691 -8.3067190034905 109.93254034544941
    vertex 33.758346223639265 63.69328099642881 109.93254034547522
  endloop
endfacet
facet normal -0.598404109658842 -7.17164962507177e-13 0.801194434293829
  outer loop
    vertex 33.40638389973776 -8.306719003490675 109.7032729963458
    vertex 33.08664919997376 63.69328099642852 109.43085655661898
    vertex 33.086649200025505 -8.306719003490786 109.43085655659317
  endloop
endfacet
facet normal -0.6959983071693728 -7.574679615528568e-13 0.7180434223759504
  outer loop
    vertex 33.08664919997376 63.69328099642852 109.43085655661898
    vertex 33.40638389973776 -8.306719003490675 109.7032729963458
    vertex 33.40638389968602 63.69328099642864 109.70327299637161
  endloop
endfacet
facet normal -0.7821511846610758 -7.853191582552433e-13 0.6230886970033045
  outer loop
    vertex 32.8043981531205 63.69328099642843 109.11976920329552
    vertex 33.086649200025505 -8.306719003490786 109.43085655659317
    vertex 33.08664919997376 63.69328099642852 109.43085655661898
  endloop
endfacet
facet normal -0.6959983071693715 -7.574679615528564e-13 0.7180434223759516
  outer loop
    vertex 33.086649200025505 -8.306719003490786 109.43085655659317
    vertex 32.8043981531205 63.69328099642843 109.11976920329552
    vertex 32.804398153172244 -8.306719003490874 109.11976920326971
  endloop
endfacet
facet normal -0.8554464992612388 -8.002607146410214e-13 0.5178911921453108
  outer loop
    vertex 32.5642706045388 63.69328099642837 108.77512481372897
    vertex 32.804398153172244 -8.306719003490874 109.11976920326971
    vertex 32.8043981531205 63.69328099642843 109.11976920329552
  endloop
endfacet
facet normal -0.7821511846610765 -7.853191582552433e-13 0.6230886970033038
  outer loop
    vertex 32.804398153172244 -8.306719003490874 109.11976920326971
    vertex 32.5642706045388 63.69328099642837 108.77512481372897
    vertex 32.56427060459054 -8.30671900349094 108.77512481370316
  endloop
endfacet
facet normal -0.914679369949957 -8.020470106757442e-13 0.40418021993653985
  outer loop
    vertex 32.3702139433248 63.69328099642835 108.40258889990851
    vertex 32.56427060459054 -8.30671900349094 108.77512481370316
    vertex 32.5642706045388 63.69328099642837 108.77512481372897
  endloop
endfacet
facet normal -0.8554464992612401 -8.002607146410214e-13 0.5178911921453088
  outer loop
    vertex 32.56427060459054 -8.30671900349094 108.77512481370316
    vertex 32.3702139433248 63.69328099642835 108.40258889990851
    vertex 32.37021394337654 -8.30671900349096 108.4025888998827
  endloop
endfacet
facet normal -0.9588760842595266 -7.906486819423223e-13 0.28382504300205297
  outer loop
    vertex 32.22541821224138 63.69328099642837 108.00828547472989
    vertex 32.37021394337654 -8.30671900349096 108.4025888998827
    vertex 32.3702139433248 63.69328099642835 108.40258889990851
  endloop
endfacet
facet normal -0.914679369949958 -8.020470106757447e-13 0.4041802199365379
  outer loop
    vertex 32.37021394337654 -8.30671900349096 108.4025888998827
    vertex 32.22541821224138 63.69328099642837 108.00828547472989
    vertex 32.22541821229312 -8.306719003490926 108.00828547470408
  endloop
endfacet
facet normal -0.9873101048587437 -7.446839263751752e-13 0.1588041461795518
  outer loop
    vertex 32.13226366750412 63.69328099642843 107.5986963810734
    vertex 32.22541821229312 -8.306719003490926 108.00828547470408
    vertex 32.22541821224138 63.69328099642837 108.00828547472989
  endloop
endfacet
facet normal -0.958876084259528 -7.90648681942322e-13 0.28382504300204886
  outer loop
    vertex 32.22541821229312 -8.306719003490926 108.00828547470408
    vertex 32.13226366750412 63.69328099642843 107.5986963810734
    vertex 32.13226366755586 -8.306719003490887 107.59869638104759
  endloop
endfacet
facet normal -0.9954596749362805 -7.062488583414004e-13 0.0951842191529397
  outer loop
    vertex 32.092281650420276 63.69328099642853 107.18055473861538
    vertex 32.13226366755586 -8.306719003490887 107.59869638104759
    vertex 32.13226366750412 63.69328099642843 107.5986963810734
  endloop
endfacet
facet normal -0.9873101048587468 -7.446839263751645e-13 0.15880414617953348
  outer loop
    vertex 32.13226366755586 -8.306719003490887 107.59869638104759
    vertex 32.092281650420276 63.69328099642853 107.18055473861538
    vertex 32.09228165046624 -8.306719003491056 107.18055473859458
  endloop
endfacet
endsolid weather
